<?xml version="1.0" encoding="UTF-8" standalone="no"?><svg xmlns="http://www.w3.org/2000/svg" xmlns:xlink="http://www.w3.org/1999/xlink" clip-rule="evenodd" stroke-miterlimit="10" viewBox="0 0 1024 768"><desc>SVG generated by Keynote</desc><defs></defs><g transform="matrix(1.00, 0.00, -0.00, -1.00, 0.0, 768.0)"><path d="M 0.0 768.0 L 1024.0 768.0 L 1024.0 0.0 L 0.0 0.0 Z M 0.0 768.0 " fill="#FDFCF6"></path><g><clipPath id="clip0x6080010aaf80"><path d="M 30.3 725.3 L 138.7 725.3 L 138.7 570.3 L 30.3 570.3 Z M 30.3 725.3 "></path></clipPath><g clip-path="url(#clip0x6080010aaf80)"><g><clipPath id="clip0x6080010ab520"><path d="M 30.3 570.3 L 138.7 570.3 L 138.7 725.3 L 30.3 725.3 Z M 30.3 570.3 "></path></clipPath><g clip-path="url(#clip0x6080010ab520)"><path d="M 135.8 615.9 C 125.1 623.9 113.0 629.7 101.7 636.4 C 105.0 643.1 108.4 650.1 111.1 657.2 C 117.5 674.7 98.4 686.7 90.0 694.6 L 87.2 696.7 C 86.9 700.2 86.5 704.9 86.5 708.6 C 86.5 715.3 91.0 725.3 91.0 725.3 L 84.5 718.6 L 78.0 725.3 C 78.0 725.3 82.5 715.3 82.5 708.6 C 82.5 704.9 82.1 700.3 81.8 696.7 L 79.0 694.6 C 70.6 686.7 51.5 674.7 57.9 657.2 C 60.6 650.1 64.0 643.1 67.3 636.4 C 56.0 629.7 43.9 623.9 33.2 615.9 C 30.6 614.0 29.6 609.6 30.9 606.0 L 42.1 574.6 C 42.7 572.7 43.9 571.3 45.3 570.7 C 45.9 570.4 46.5 570.3 47.1 570.3 C 48.0 570.3 48.8 570.6 49.6 571.2 L 84.5 596.0 L 119.4 571.2 C 120.2 570.6 121.0 570.3 121.9 570.3 C 122.5 570.3 123.1 570.4 123.7 570.7 C 125.1 571.3 126.3 572.7 126.9 574.6 L 138.1 606.0 C 139.4 609.6 138.4 614.0 135.8 615.9 M 78.9 666.8 C 78.2 662.8 75.2 660.1 72.3 660.7 C 69.4 661.2 67.6 664.9 68.4 668.9 C 69.1 672.8 72.0 675.6 75.0 675.0 C 77.9 674.4 79.7 670.8 78.9 666.8 M 97.1 660.7 C 94.2 660.1 91.3 662.8 90.5 666.8 C 89.8 670.8 91.6 674.4 94.5 675.0 C 97.4 675.6 100.4 672.8 101.1 668.9 C 101.8 664.9 100.1 661.2 97.1 660.7 " fill="#D0272B"></path></g></g></g></g><text xml:space="preserve" font-family="Facit-Bold,Facit" font-weight="bold" font-size="76.0" fill="#424242" transform="matrix(1.00, 0.00, -0.00, -1.00, 186.5, 640.0)">W</text><text xml:space="preserve" font-family="Facit-Bold,Facit" font-weight="bold" font-size="76.0" fill="#424242" transform="matrix(1.00, 0.00, -0.00, -1.00, 255.1, 640.0)">h</text><text xml:space="preserve" font-family="Facit-Bold,Facit" font-weight="bold" font-size="76.0" fill="#424242" transform="matrix(1.00, 0.00, -0.00, -1.00, 298.3, 640.0)">a</text><text xml:space="preserve" font-family="Facit-Bold,Facit" font-weight="bold" font-size="76.0" fill="#424242" transform="matrix(1.00, 0.00, -0.00, -1.00, 337.6, 640.0)">t</text><text xml:space="preserve" font-family="Facit-Bold,Facit" font-weight="bold" font-size="76.0" fill="#424242" transform="matrix(1.00, 0.00, -0.00, -1.00, 370.6, 640.0)"> </text><text xml:space="preserve" font-family="Facit-Bold,Facit" font-weight="bold" font-size="76.0" fill="#424242" transform="matrix(1.00, 0.00, -0.00, -1.00, 385.3, 640.0)">i</text><text xml:space="preserve" font-family="Facit-Bold,Facit" font-weight="bold" font-size="76.0" fill="#424242" transform="matrix(1.00, 0.00, -0.00, -1.00, 406.8, 640.0)">s</text><text xml:space="preserve" font-family="Facit-Bold,Facit" font-weight="bold" font-size="76.0" fill="#424242" transform="matrix(1.00, 0.00, -0.00, -1.00, 440.5, 640.0)"> </text><text xml:space="preserve" font-family="Facit-Bold,Facit" font-weight="bold" font-size="76.0" fill="#424242" transform="matrix(1.00, 0.00, -0.00, -1.00, 455.3, 640.0)">P</text><text xml:space="preserve" font-family="Facit-Bold,Facit" font-weight="bold" font-size="76.0" fill="#424242" transform="matrix(1.00, 0.00, -0.00, -1.00, 501.2, 640.0)">y</text><text xml:space="preserve" font-family="Facit-Bold,Facit" font-weight="bold" font-size="76.0" fill="#424242" transform="matrix(1.00, 0.00, -0.00, -1.00, 541.9, 640.0)">C</text><text xml:space="preserve" font-family="Facit-Bold,Facit" font-weight="bold" font-size="76.0" fill="#424242" transform="matrix(1.00, 0.00, -0.00, -1.00, 583.0, 640.0)">o</text><text xml:space="preserve" font-family="Facit-Bold,Facit" font-weight="bold" font-size="76.0" fill="#424242" transform="matrix(1.00, 0.00, -0.00, -1.00, 625.6, 640.0)">n</text><text xml:space="preserve" font-family="Facit-Bold,Facit" font-weight="bold" font-size="76.0" fill="#424242" transform="matrix(1.00, 0.00, -0.00, -1.00, 668.8, 640.0)"> </text><text xml:space="preserve" font-family="Facit-Bold,Facit" font-weight="bold" font-size="76.0" fill="#424242" transform="matrix(1.00, 0.00, -0.00, -1.00, 683.6, 640.0)">A</text><text xml:space="preserve" font-family="Facit-Bold,Facit" font-weight="bold" font-size="76.0" fill="#424242" transform="matrix(1.00, 0.00, -0.00, -1.00, 730.8, 640.0)">P</text><text xml:space="preserve" font-family="Facit-Bold,Facit" font-weight="bold" font-size="76.0" fill="#424242" transform="matrix(1.00, 0.00, -0.00, -1.00, 772.3, 640.0)">A</text><text xml:space="preserve" font-family="Facit-Bold,Facit" font-weight="bold" font-size="76.0" fill="#424242" transform="matrix(1.00, 0.00, -0.00, -1.00, 818.6, 640.0)">C</text><text xml:space="preserve" font-family="Facit-Bold,Facit" font-weight="bold" font-size="76.0" fill="#424242" transform="matrix(1.00, 0.00, -0.00, -1.00, 861.6, 640.0)">?</text><image xlink:href="../../0C1A6CDE-78FF-4C9C-AF92-D0850D29648F/assets/5A484E865A3C88B9B5CBBE1BB0C7FFF0.png" width="1342.00" height="892.00" transform="matrix(0.50, 0.00, -0.00, -0.50, 216.8, 483.3)"></image><text xml:space="preserve" font-family="Helvetica-Light,Helvetica" font-size="36.0" fill="#000000" transform="matrix(1.00, 0.00, -0.00, -1.00, 195.6, 578.4)">L</text><text xml:space="preserve" font-family="Helvetica-Light,Helvetica" font-size="36.0" fill="#000000" transform="matrix(1.00, 0.00, -0.00, -1.00, 215.6, 578.4)">i</text><text xml:space="preserve" font-family="Helvetica-Light,Helvetica" font-size="36.0" fill="#000000" transform="matrix(1.00, 0.00, -0.00, -1.00, 223.6, 578.4)">k</text><text xml:space="preserve" font-family="Helvetica-Light,Helvetica" font-size="36.0" fill="#000000" transform="matrix(1.00, 0.00, -0.00, -1.00, 241.6, 578.4)">e</text><text xml:space="preserve" font-family="Helvetica-Light,Helvetica" font-size="36.0" fill="#000000" transform="matrix(1.00, 0.00, -0.00, -1.00, 261.7, 578.4)"> </text><text xml:space="preserve" font-family="Helvetica-Bold,Helvetica" font-weight="bold" font-size="36.0" fill="#005468" transform="matrix(1.00, 0.00, -0.00, -1.00, 271.7, 578.4)">E</text><text xml:space="preserve" font-family="Helvetica-Bold,Helvetica" font-weight="bold" font-size="36.0" fill="#005468" transform="matrix(1.00, 0.00, -0.00, -1.00, 295.7, 578.4)">u</text><text xml:space="preserve" font-family="Helvetica-Bold,Helvetica" font-weight="bold" font-size="36.0" fill="#005468" transform="matrix(1.00, 0.00, -0.00, -1.00, 317.7, 578.4)">r</text><text xml:space="preserve" font-family="Helvetica-Bold,Helvetica" font-weight="bold" font-size="36.0" fill="#005468" transform="matrix(1.00, 0.00, -0.00, -1.00, 331.7, 578.4)">o</text><text xml:space="preserve" font-family="Helvetica-Bold,Helvetica" font-weight="bold" font-size="36.0" fill="#005468" transform="matrix(1.00, 0.00, -0.00, -1.00, 353.7, 578.4)">P</text><text xml:space="preserve" font-family="Helvetica-Bold,Helvetica" font-weight="bold" font-size="36.0" fill="#005468" transform="matrix(1.00, 0.00, -0.00, -1.00, 377.7, 578.4)">y</text><text xml:space="preserve" font-family="Helvetica-Bold,Helvetica" font-weight="bold" font-size="36.0" fill="#005468" transform="matrix(1.00, 0.00, -0.00, -1.00, 397.7, 578.4)">t</text><text xml:space="preserve" font-family="Helvetica-Bold,Helvetica" font-weight="bold" font-size="36.0" fill="#005468" transform="matrix(1.00, 0.00, -0.00, -1.00, 409.7, 578.4)">h</text><text xml:space="preserve" font-family="Helvetica-Bold,Helvetica" font-weight="bold" font-size="36.0" fill="#005468" transform="matrix(1.00, 0.00, -0.00, -1.00, 431.7, 578.4)">o</text><text xml:space="preserve" font-family="Helvetica-Bold,Helvetica" font-weight="bold" font-size="36.0" fill="#005468" transform="matrix(1.00, 0.00, -0.00, -1.00, 453.6, 578.4)">n</text><text xml:space="preserve" font-family="Helvetica-Light,Helvetica" font-size="36.0" fill="#000000" transform="matrix(1.00, 0.00, -0.00, -1.00, 475.7, 578.4)">,</text><text xml:space="preserve" font-family="Helvetica-Light,Helvetica" font-size="36.0" fill="#000000" transform="matrix(1.00, 0.00, -0.00, -1.00, 485.7, 578.4)"> </text><text xml:space="preserve" font-family="Helvetica-Bold,Helvetica" font-weight="bold" font-size="36.0" fill="#D0272B" transform="matrix(1.00, 0.00, -0.00, -1.00, 495.7, 578.4)">a</text><text xml:space="preserve" font-family="Helvetica-Bold,Helvetica" font-weight="bold" font-size="36.0" fill="#D0272B" transform="matrix(1.00, 0.00, -0.00, -1.00, 515.7, 578.4)"> </text><text xml:space="preserve" font-family="Helvetica-Bold,Helvetica" font-weight="bold" font-size="36.0" fill="#D0272B" transform="matrix(1.00, 0.00, -0.00, -1.00, 525.7, 578.4)">r</text><text xml:space="preserve" font-family="Helvetica-Bold,Helvetica" font-weight="bold" font-size="36.0" fill="#D0272B" transform="matrix(1.00, 0.00, -0.00, -1.00, 539.7, 578.4)">e</text><text xml:space="preserve" font-family="Helvetica-Bold,Helvetica" font-weight="bold" font-size="36.0" fill="#D0272B" transform="matrix(1.00, 0.00, -0.00, -1.00, 559.7, 578.4)">g</text><text xml:space="preserve" font-family="Helvetica-Bold,Helvetica" font-weight="bold" font-size="36.0" fill="#D0272B" transform="matrix(1.00, 0.00, -0.00, -1.00, 581.7, 578.4)">i</text><text xml:space="preserve" font-family="Helvetica-Bold,Helvetica" font-weight="bold" font-size="36.0" fill="#D0272B" transform="matrix(1.00, 0.00, -0.00, -1.00, 591.7, 578.4)">o</text><text xml:space="preserve" font-family="Helvetica-Bold,Helvetica" font-weight="bold" font-size="36.0" fill="#D0272B" transform="matrix(1.00, 0.00, -0.00, -1.00, 613.7, 578.4)">n</text><text xml:space="preserve" font-family="Helvetica-Bold,Helvetica" font-weight="bold" font-size="36.0" fill="#D0272B" transform="matrix(1.00, 0.00, -0.00, -1.00, 635.7, 578.4)">a</text><text xml:space="preserve" font-family="Helvetica-Bold,Helvetica" font-weight="bold" font-size="36.0" fill="#D0272B" transform="matrix(1.00, 0.00, -0.00, -1.00, 655.7, 578.4)">l</text><text xml:space="preserve" font-family="Helvetica-Bold,Helvetica" font-weight="bold" font-size="36.0" fill="#D0272B" transform="matrix(1.00, 0.00, -0.00, -1.00, 665.7, 578.4)"> </text><text xml:space="preserve" font-family="Helvetica-Bold,Helvetica" font-weight="bold" font-size="36.0" fill="#D0272B" transform="matrix(1.00, 0.00, -0.00, -1.00, 675.7, 578.4)">P</text><text xml:space="preserve" font-family="Helvetica-Bold,Helvetica" font-weight="bold" font-size="36.0" fill="#D0272B" transform="matrix(1.00, 0.00, -0.00, -1.00, 699.7, 578.4)">y</text><text xml:space="preserve" font-family="Helvetica-Bold,Helvetica" font-weight="bold" font-size="36.0" fill="#D0272B" transform="matrix(1.00, 0.00, -0.00, -1.00, 719.7, 578.4)">C</text><text xml:space="preserve" font-family="Helvetica-Bold,Helvetica" font-weight="bold" font-size="36.0" fill="#D0272B" transform="matrix(1.00, 0.00, -0.00, -1.00, 745.7, 578.4)">o</text><text xml:space="preserve" font-family="Helvetica-Bold,Helvetica" font-weight="bold" font-size="36.0" fill="#D0272B" transform="matrix(1.00, 0.00, -0.00, -1.00, 767.7, 578.4)">n</text><text xml:space="preserve" font-family="Helvetica-Light,Helvetica" font-size="36.0" fill="#000000" transform="matrix(1.00, 0.00, -0.00, -1.00, 789.7, 578.4)"> </text><text xml:space="preserve" font-family="Helvetica-Light,Helvetica" font-size="36.0" fill="#000000" transform="matrix(1.00, 0.00, -0.00, -1.00, 799.7, 578.4)">s</text><text xml:space="preserve" font-family="Helvetica-Light,Helvetica" font-size="36.0" fill="#000000" transform="matrix(1.00, 0.00, -0.00, -1.00, 817.7, 578.4)">t</text><text xml:space="preserve" font-family="Helvetica-Light,Helvetica" font-size="36.0" fill="#000000" transform="matrix(1.00, 0.00, -0.00, -1.00, 827.8, 578.4)">a</text><text xml:space="preserve" font-family="Helvetica-Light,Helvetica" font-size="36.0" fill="#000000" transform="matrix(1.00, 0.00, -0.00, -1.00, 847.8, 578.4)">r</text><text xml:space="preserve" font-family="Helvetica-Light,Helvetica" font-size="36.0" fill="#000000" transform="matrix(1.00, 0.00, -0.00, -1.00, 860.4, 578.4)">t</text><text xml:space="preserve" font-family="Helvetica-Light,Helvetica" font-size="36.0" fill="#000000" transform="matrix(1.00, 0.00, -0.00, -1.00, 870.4, 578.4)">s</text><text xml:space="preserve" font-family="Helvetica-Light,Helvetica" font-size="36.0" fill="#000000" transform="matrix(1.00, 0.00, -0.00, -1.00, 888.4, 578.4)"> </text><text xml:space="preserve" font-family="Helvetica-Light,Helvetica" font-size="36.0" fill="#000000" transform="matrix(1.00, 0.00, -0.00, -1.00, 195.6, 526.8)">i</text><text xml:space="preserve" font-family="Helvetica-Light,Helvetica" font-size="36.0" fill="#000000" transform="matrix(1.00, 0.00, -0.00, -1.00, 203.6, 526.8)">n</text><text xml:space="preserve" font-family="Helvetica-Light,Helvetica" font-size="36.0" fill="#000000" transform="matrix(1.00, 0.00, -0.00, -1.00, 223.6, 526.8)"> </text><text xml:space="preserve" font-family="Helvetica-Light,Helvetica" font-size="36.0" fill="#000000" transform="matrix(1.00, 0.00, -0.00, -1.00, 233.6, 526.8)">2</text><text xml:space="preserve" font-family="Helvetica-Light,Helvetica" font-size="36.0" fill="#000000" transform="matrix(1.00, 0.00, -0.00, -1.00, 253.7, 526.8)">0</text><text xml:space="preserve" font-family="Helvetica-Light,Helvetica" font-size="36.0" fill="#000000" transform="matrix(1.00, 0.00, -0.00, -1.00, 273.7, 526.8)">1</text><text xml:space="preserve" font-family="Helvetica-Light,Helvetica" font-size="36.0" fill="#000000" transform="matrix(1.00, 0.00, -0.00, -1.00, 293.7, 526.8)">0</text><text xml:space="preserve" font-family="Helvetica-Light,Helvetica" font-size="36.0" fill="#000000" transform="matrix(1.00, 0.00, -0.00, -1.00, 313.7, 526.8)">,</text><text xml:space="preserve" font-family="Helvetica-Light,Helvetica" font-size="36.0" fill="#000000" transform="matrix(1.00, 0.00, -0.00, -1.00, 323.7, 526.8)"> </text><text xml:space="preserve" font-family="Helvetica-Light,Helvetica" font-size="36.0" fill="#000000" transform="matrix(1.00, 0.00, -0.00, -1.00, 333.7, 526.8)">S</text><text xml:space="preserve" font-family="Helvetica-Light,Helvetica" font-size="36.0" fill="#000000" transform="matrix(1.00, 0.00, -0.00, -1.00, 355.7, 526.8)">i</text><text xml:space="preserve" font-family="Helvetica-Light,Helvetica" font-size="36.0" fill="#000000" transform="matrix(1.00, 0.00, -0.00, -1.00, 363.7, 526.8)">n</text><text xml:space="preserve" font-family="Helvetica-Light,Helvetica" font-size="36.0" fill="#000000" transform="matrix(1.00, 0.00, -0.00, -1.00, 383.7, 526.8)">g</text><text xml:space="preserve" font-family="Helvetica-Light,Helvetica" font-size="36.0" fill="#000000" transform="matrix(1.00, 0.00, -0.00, -1.00, 405.7, 526.8)">a</text><text xml:space="preserve" font-family="Helvetica-Light,Helvetica" font-size="36.0" fill="#000000" transform="matrix(1.00, 0.00, -0.00, -1.00, 425.7, 526.8)">p</text><text xml:space="preserve" font-family="Helvetica-Light,Helvetica" font-size="36.0" fill="#000000" transform="matrix(1.00, 0.00, -0.00, -1.00, 447.7, 526.8)">o</text><text xml:space="preserve" font-family="Helvetica-Light,Helvetica" font-size="36.0" fill="#000000" transform="matrix(1.00, 0.00, -0.00, -1.00, 467.8, 526.8)">r</text><text xml:space="preserve" font-family="Helvetica-Light,Helvetica" font-size="36.0" fill="#000000" transform="matrix(1.00, 0.00, -0.00, -1.00, 479.1, 526.8)">e</text><text xml:space="preserve" font-family="Helvetica-Light,Helvetica" font-size="36.0" fill="#000000" transform="matrix(1.00, 0.00, -0.00, -1.00, 499.1, 526.8)">.</text></g></svg>