<?xml version="1.0" encoding="UTF-8" standalone="no"?><svg xmlns="http://www.w3.org/2000/svg" xmlns:xlink="http://www.w3.org/1999/xlink" clip-rule="evenodd" stroke-miterlimit="10" viewBox="0 0 345 135"><desc>SVG generated by Keynote</desc><defs></defs><g transform="matrix(1.00, 0.00, -0.00, -1.00, 0.0, 135.0)"><text xml:space="preserve" font-family="Facit-Bold,Facit" font-weight="bold" font-size="68.0" fill="#005468" transform="matrix(1.00, 0.00, -0.00, -1.00, 2.2, 85.2)">P</text><text xml:space="preserve" font-family="Facit-Bold,Facit" font-weight="bold" font-size="68.0" fill="#005468" transform="matrix(1.00, 0.00, -0.00, -1.00, 42.6, 85.2)">Y</text><text xml:space="preserve" font-family="Facit-Bold,Facit" font-weight="bold" font-size="68.0" fill="#D0272B" transform="matrix(1.00, 0.00, -0.00, -1.00, 79.4, 85.2)">C</text><text xml:space="preserve" font-family="Facit-Bold,Facit" font-weight="bold" font-size="68.0" fill="#D0272B" transform="matrix(1.00, 0.00, -0.00, -1.00, 116.3, 85.2)">O</text><text xml:space="preserve" font-family="Facit-Bold,Facit" font-weight="bold" font-size="68.0" fill="#D0272B" transform="matrix(1.00, 0.00, -0.00, -1.00, 163.0, 85.2)">N</text><text xml:space="preserve" font-family="Facit-Bold,Facit" font-weight="bold" font-size="68.0" fill="#D0272B" transform="matrix(1.00, 0.00, -0.00, -1.00, 211.5, 85.2)"> </text><text xml:space="preserve" font-family="Facit-Bold,Facit" font-weight="bold" font-size="68.0" fill="#005468" transform="matrix(1.00, 0.00, -0.00, -1.00, 2.2, 3.2)">A</text><text xml:space="preserve" font-family="Facit-Bold,Facit" font-weight="bold" font-size="68.0" fill="#005468" transform="matrix(1.00, 0.00, -0.00, -1.00, 44.5, 3.2)">P</text><text xml:space="preserve" font-family="Facit-Bold,Facit" font-weight="bold" font-size="68.0" fill="#005468" transform="matrix(1.00, 0.00, -0.00, -1.00, 81.6, 3.2)">A</text><text xml:space="preserve" font-family="Facit-Bold,Facit" font-weight="bold" font-size="68.0" fill="#005468" transform="matrix(1.00, 0.00, -0.00, -1.00, 123.0, 3.2)">C</text><text xml:space="preserve" font-family="Facit-Bold,Facit" font-weight="bold" font-size="68.0" fill="#005468" transform="matrix(1.00, 0.00, -0.00, -1.00, 161.4, 3.2)"> </text><text xml:space="preserve" font-family="Facit-Bold,Facit" font-weight="bold" font-size="68.0" fill="#D0272B" transform="matrix(1.00, 0.00, -0.00, -1.00, 174.6, 3.2)">i</text><text xml:space="preserve" font-family="Facit-Bold,Facit" font-weight="bold" font-size="68.0" fill="#D0272B" transform="matrix(1.00, 0.00, -0.00, -1.00, 193.8, 3.2)">n</text><text xml:space="preserve" font-family="Facit-Bold,Facit" font-weight="bold" font-size="68.0" fill="#D0272B" transform="matrix(1.00, 0.00, -0.00, -1.00, 232.5, 3.2)"> </text><text xml:space="preserve" font-family="Facit-Bold,Facit" font-weight="bold" font-size="68.0" fill="#D0272B" transform="matrix(1.00, 0.00, -0.00, -1.00, 245.7, 3.2)">T</text><text xml:space="preserve" font-family="Facit-Bold,Facit" font-weight="bold" font-size="68.0" fill="#D0272B" transform="matrix(1.00, 0.00, -0.00, -1.00, 281.8, 3.2)">W</text></g></svg>