<?xml version="1.0" encoding="UTF-8" standalone="no"?><svg xmlns="http://www.w3.org/2000/svg" xmlns:xlink="http://www.w3.org/1999/xlink" clip-rule="evenodd" stroke-miterlimit="10" viewBox="0 0 111 158"><desc>SVG generated by Keynote</desc><defs></defs><g transform="matrix(1.00, 0.00, -0.00, -1.00, 0.0, 158.0)"><g><clipPath id="clip0x6080010a1f80"><path d="M 1.3 156.3 L 109.7 156.3 L 109.7 1.3 L 1.3 1.3 Z M 1.3 156.3 "></path></clipPath><g clip-path="url(#clip0x6080010a1f80)"><g><clipPath id="clip0x6080010a2100"><path d="M 1.3 1.3 L 109.7 1.3 L 109.7 156.3 L 1.3 156.3 Z M 1.3 1.3 "></path></clipPath><g clip-path="url(#clip0x6080010a2100)"><path d="M 106.8 46.9 C 96.1 54.9 84.0 60.7 72.7 67.4 C 76.0 74.1 79.4 81.1 82.1 88.2 C 88.5 105.7 69.4 117.7 61.0 125.6 L 58.2 127.7 C 57.9 131.2 57.5 135.9 57.5 139.6 C 57.5 146.3 62.0 156.3 62.0 156.3 L 55.5 149.6 L 49.0 156.3 C 49.0 156.3 53.5 146.3 53.5 139.6 C 53.5 135.9 53.1 131.3 52.8 127.7 L 50.0 125.6 C 41.6 117.7 22.5 105.7 28.9 88.2 C 31.6 81.1 35.0 74.1 38.3 67.4 C 27.0 60.7 14.9 54.9 4.2 46.9 C 1.6 45.0 0.6 40.6 1.9 37.0 L 13.1 5.6 C 13.7 3.7 14.9 2.3 16.3 1.7 C 16.9 1.4 17.5 1.3 18.1 1.3 C 19.0 1.3 19.8 1.6 20.6 2.2 L 55.5 27.0 L 90.4 2.2 C 91.2 1.6 92.0 1.3 92.9 1.3 C 93.5 1.3 94.1 1.4 94.7 1.7 C 96.1 2.3 97.3 3.7 97.9 5.6 L 109.1 37.0 C 110.4 40.6 109.4 45.0 106.8 46.9 M 49.9 97.8 C 49.2 93.8 46.2 91.1 43.3 91.7 C 40.4 92.2 38.6 95.9 39.4 99.9 C 40.1 103.8 43.0 106.6 46.0 106.0 C 48.9 105.4 50.7 101.8 49.9 97.8 M 68.1 91.7 C 65.2 91.1 62.3 93.8 61.5 97.8 C 60.8 101.8 62.6 105.4 65.5 106.0 C 68.4 106.6 71.4 103.8 72.1 99.9 C 72.8 95.9 71.1 92.2 68.1 91.7 " fill="#D0272B"></path></g></g></g></g></g></svg>