<?xml version="1.0" encoding="UTF-8" standalone="no"?><svg xmlns="http://www.w3.org/2000/svg" xmlns:xlink="http://www.w3.org/1999/xlink" clip-rule="evenodd" stroke-miterlimit="10" viewBox="0 0 497 45"><desc>SVG generated by Keynote</desc><defs></defs><g transform="matrix(1.00, 0.00, -0.00, -1.00, 0.0, 45.0)"><text xml:space="preserve" font-family="Helvetica,Helvetica" font-size="44.0" fill="#000000" transform="matrix(1.00, 0.00, -0.00, -1.00, -1.3, 11.4)">M</text><text xml:space="preserve" font-family="Helvetica,Helvetica" font-size="44.0" fill="#000000" transform="matrix(1.00, 0.00, -0.00, -1.00, 35.3, 11.4)">A</text><text xml:space="preserve" font-family="Helvetica,Helvetica" font-size="44.0" fill="#000000" transform="matrix(1.00, 0.00, -0.00, -1.00, 61.4, 11.4)">Y</text><text xml:space="preserve" font-family="Helvetica,Helvetica" font-size="44.0" fill="#000000" transform="matrix(1.00, 0.00, -0.00, -1.00, 90.0, 11.4)"> </text><text xml:space="preserve" font-family="Helvetica,Helvetica" font-size="44.0" fill="#D0272B" transform="matrix(1.00, 0.00, -0.00, -1.00, 102.2, 11.4)">1</text><text xml:space="preserve" font-family="Helvetica,Helvetica" font-size="44.0" fill="#D0272B" transform="matrix(1.00, 0.00, -0.00, -1.00, 126.7, 11.4)">7</text><text xml:space="preserve" font-family="Helvetica,Helvetica" font-size="44.0" fill="#D0272B" transform="matrix(1.00, 0.00, -0.00, -1.00, 151.2, 11.4)">-</text><text xml:space="preserve" font-family="Helvetica,Helvetica" font-size="44.0" fill="#D0272B" transform="matrix(1.00, 0.00, -0.00, -1.00, 165.8, 11.4)">1</text><text xml:space="preserve" font-family="Helvetica,Helvetica" font-size="44.0" fill="#D0272B" transform="matrix(1.00, 0.00, -0.00, -1.00, 190.3, 11.4)">8</text><text xml:space="preserve" font-family="Helvetica,Helvetica" font-size="44.0" fill="#000000" transform="matrix(1.00, 0.00, -0.00, -1.00, 214.8, 11.4)"> </text><text xml:space="preserve" font-family="Helvetica,Helvetica" font-size="44.0" fill="#000000" transform="matrix(1.00, 0.00, -0.00, -1.00, 227.0, 11.4)">2</text><text xml:space="preserve" font-family="Helvetica,Helvetica" font-size="44.0" fill="#000000" transform="matrix(1.00, 0.00, -0.00, -1.00, 251.4, 11.4)">0</text><text xml:space="preserve" font-family="Helvetica,Helvetica" font-size="44.0" fill="#000000" transform="matrix(1.00, 0.00, -0.00, -1.00, 275.9, 11.4)">1</text><text xml:space="preserve" font-family="Helvetica,Helvetica" font-size="44.0" fill="#000000" transform="matrix(1.00, 0.00, -0.00, -1.00, 300.4, 11.4)">4</text><text xml:space="preserve" font-family="Helvetica,Helvetica" font-size="44.0" fill="#000000" transform="matrix(1.00, 0.00, -0.00, -1.00, 324.8, 11.4)"> </text><text xml:space="preserve" font-family="Helvetica,Helvetica" font-size="44.0" fill="#000000" transform="matrix(1.00, 0.00, -0.00, -1.00, 337.0, 11.4)">i</text><text xml:space="preserve" font-family="Helvetica,Helvetica" font-size="44.0" fill="#000000" transform="matrix(1.00, 0.00, -0.00, -1.00, 346.8, 11.4)">n</text><text xml:space="preserve" font-family="Helvetica,Helvetica" font-size="44.0" fill="#000000" transform="matrix(1.00, 0.00, -0.00, -1.00, 371.3, 11.4)"> </text><text xml:space="preserve" font-family="Helvetica,Helvetica" font-size="44.0" fill="#005468" transform="matrix(1.00, 0.00, -0.00, -1.00, 382.8, 11.4)">T</text><text xml:space="preserve" font-family="Helvetica,Helvetica" font-size="44.0" fill="#005468" transform="matrix(1.00, 0.00, -0.00, -1.00, 405.9, 11.4)">a</text><text xml:space="preserve" font-family="Helvetica,Helvetica" font-size="44.0" fill="#005468" transform="matrix(1.00, 0.00, -0.00, -1.00, 431.5, 11.4)">i</text><text xml:space="preserve" font-family="Helvetica,Helvetica" font-size="44.0" fill="#005468" transform="matrix(1.00, 0.00, -0.00, -1.00, 442.3, 11.4)">p</text><text xml:space="preserve" font-family="Helvetica,Helvetica" font-size="44.0" fill="#005468" transform="matrix(1.00, 0.00, -0.00, -1.00, 467.9, 11.4)">e</text><text xml:space="preserve" font-family="Helvetica,Helvetica" font-size="44.0" fill="#005468" transform="matrix(1.00, 0.00, -0.00, -1.00, 493.5, 11.4)">i</text></g></svg>