<?xml version="1.0" encoding="UTF-8" standalone="no"?><svg xmlns="http://www.w3.org/2000/svg" xmlns:xlink="http://www.w3.org/1999/xlink" clip-rule="evenodd" stroke-miterlimit="10" viewBox="0 0 130 455"><desc>SVG generated by Keynote</desc><defs></defs><g transform="matrix(1.00, 0.00, -0.00, -1.00, 0.0, 455.0)"><g><clipPath id="clip0x608000eba2e0"><path d="M 0.2 454.1 L 129.5 454.1 L 129.5 269.3 L 0.2 269.3 Z M 0.2 454.1 "></path></clipPath><g clip-path="url(#clip0x608000eba2e0)"><g><clipPath id="clip0x608000eba400"><path d="M 0.2 269.3 L 129.5 269.3 L 129.5 454.1 L 0.2 454.1 Z M 0.2 269.3 "></path></clipPath><g clip-path="url(#clip0x608000eba400)"><path d="M 126.1 323.6 C 113.3 333.2 98.8 340.1 85.4 348.1 C 89.3 356.1 93.4 364.4 96.6 372.9 C 104.2 393.8 81.5 408.1 71.5 417.5 L 68.1 420.1 C 67.7 424.3 67.3 429.8 67.3 434.2 C 67.3 442.2 72.6 454.1 72.6 454.1 L 64.9 446.1 L 57.1 454.1 C 57.1 454.1 62.5 442.2 62.5 434.2 C 62.5 429.8 62.1 424.3 61.7 420.1 L 58.3 417.5 C 48.3 408.1 25.5 393.8 33.2 372.9 C 36.3 364.4 40.5 356.1 44.3 348.1 C 30.9 340.1 16.5 333.2 3.6 323.6 C 0.6 321.3 -0.6 316.2 0.9 311.9 L 14.3 274.3 C 15.0 272.1 16.4 270.5 18.1 269.7 C 18.8 269.4 19.5 269.3 20.2 269.3 C 21.3 269.3 22.3 269.6 23.3 270.3 L 64.9 299.9 L 106.5 270.3 C 107.4 269.6 108.5 269.3 109.5 269.3 C 110.2 269.3 110.9 269.4 111.6 269.7 C 113.3 270.5 114.7 272.1 115.5 274.3 L 128.9 311.9 C 130.4 316.2 129.2 321.3 126.1 323.6 M 58.2 384.4 C 57.4 379.6 53.8 376.4 50.3 377.0 C 46.9 377.7 44.7 382.1 45.6 386.8 C 46.5 391.5 50.0 394.8 53.5 394.2 C 57.0 393.5 59.1 389.1 58.2 384.4 M 80.0 377.0 C 76.5 376.4 72.9 379.6 72.1 384.4 C 71.2 389.1 73.3 393.5 76.8 394.2 C 80.3 394.8 83.8 391.5 84.7 386.8 C 85.6 382.1 83.4 377.7 80.0 377.0 " fill="#D0272B"></path></g></g></g></g><g><clipPath id="clip0x608000eba640"><path d="M 11.2 287.0 L 118.5 287.0 L 118.5 207.1 L 11.2 207.1 Z M 11.2 287.0 "></path></clipPath><g clip-path="url(#clip0x608000eba640)"><g><clipPath id="clip0x608000eba760"><path d="M 11.2 207.1 L 118.5 207.1 L 118.5 287.0 L 11.2 287.0 Z M 11.2 207.1 "></path></clipPath><g clip-path="url(#clip0x608000eba760)"><path d="M 22.9 211.3 C 23.5 209.5 24.7 208.1 26.1 207.5 C 26.7 207.2 27.2 207.1 27.8 207.1 C 28.7 207.1 29.6 207.4 30.4 207.9 L 64.9 232.5 L 99.5 208.1 C 100.3 207.5 101.2 207.2 102.0 207.2 C 102.6 207.2 103.2 207.4 103.8 207.6 C 105.2 208.3 106.3 209.6 107.0 211.5 L 118.0 242.7 C 119.3 246.3 118.2 250.7 115.6 252.5 L 67.8 286.2 C 66.9 286.9 65.8 287.1 64.8 287.0 C 63.8 287.1 62.8 286.9 61.8 286.2 L 14.2 252.3 C 11.5 250.4 10.5 246.1 11.8 242.4 L 22.9 211.3 " fill="#005369"></path></g></g></g></g><g><clipPath id="clip0x608000eba9a0"><path d="M 11.2 221.9 L 118.5 221.9 L 118.5 142.0 L 11.2 142.0 Z M 11.2 221.9 "></path></clipPath><g clip-path="url(#clip0x608000eba9a0)"><g><clipPath id="clip0x608000ebac40"><path d="M 11.2 142.0 L 118.5 142.0 L 118.5 221.9 L 11.2 221.9 Z M 11.2 142.0 "></path></clipPath><g clip-path="url(#clip0x608000ebac40)"><path d="M 22.9 146.2 C 23.5 144.4 24.7 143.0 26.1 142.3 C 26.6 142.1 27.2 142.0 27.8 142.0 C 28.7 142.0 29.6 142.3 30.4 142.8 L 64.9 167.4 L 99.5 143.0 C 100.3 142.4 101.2 142.1 102.0 142.1 C 102.6 142.1 103.2 142.2 103.8 142.5 C 105.2 143.1 106.3 144.5 107.0 146.4 L 118.0 177.6 C 119.3 181.2 118.2 185.5 115.6 187.4 L 67.8 221.1 C 66.9 221.8 65.8 222.0 64.8 221.9 C 63.8 222.0 62.8 221.8 61.8 221.1 L 14.2 187.2 C 11.5 185.3 10.5 181.0 11.8 177.3 L 22.9 146.2 " fill="#D0272B"></path></g></g></g></g><g><clipPath id="clip0x608000ebae20"><path d="M 2.0 155.4 L 127.7 155.4 L 127.7 0.7 L 2.0 0.7 Z M 2.0 155.4 "></path></clipPath><g clip-path="url(#clip0x608000ebae20)"><g><clipPath id="clip0x608000ebaee0"><path d="M 2.0 0.7 L 127.7 0.7 L 127.7 155.4 L 2.0 155.4 Z M 2.0 0.7 "></path></clipPath><g clip-path="url(#clip0x608000ebaee0)"><path d="M 127.6 9.6 L 108.0 85.9 L 118.3 110.8 C 119.6 114.4 118.6 118.8 115.9 120.7 L 68.3 154.6 C 67.3 155.2 66.3 155.5 65.3 155.4 L 64.9 155.4 L 64.4 155.4 C 63.4 155.5 62.4 155.2 61.5 154.6 L 13.8 120.7 C 11.2 118.8 10.1 114.4 11.4 110.8 L 21.7 85.9 L 2.1 9.6 C 1.8 7.4 2.2 5.1 3.3 3.4 C 4.3 1.6 5.9 0.6 7.5 0.7 L 64.3 0.8 L 64.7 0.8 L 64.9 0.8 L 65.0 0.8 L 65.5 0.8 L 122.2 0.7 C 123.9 0.6 125.4 1.6 126.5 3.4 C 127.5 5.1 127.9 7.4 127.6 9.6 " fill="#005369"></path></g></g></g></g></g></svg>