<?xml version="1.0" encoding="UTF-8" standalone="no"?><svg xmlns="http://www.w3.org/2000/svg" xmlns:xlink="http://www.w3.org/1999/xlink" clip-rule="evenodd" stroke-miterlimit="10" viewBox="0 0 1024 768"><desc>SVG generated by Keynote</desc><defs></defs><g transform="matrix(1.00, 0.00, -0.00, -1.00, 0.0, 768.0)"><path d="M 0.0 768.0 L 1024.0 768.0 L 1024.0 0.0 L 0.0 0.0 Z M 0.0 768.0 " fill="#FDFCF6"></path><g><clipPath id="clip0x6000010b9fe0"><path d="M 30.3 725.3 L 138.7 725.3 L 138.7 570.3 L 30.3 570.3 Z M 30.3 725.3 "></path></clipPath><g clip-path="url(#clip0x6000010b9fe0)"><g><clipPath id="clip0x6000010ba040"><path d="M 30.3 570.3 L 138.7 570.3 L 138.7 725.3 L 30.3 725.3 Z M 30.3 570.3 "></path></clipPath><g clip-path="url(#clip0x6000010ba040)"><path d="M 135.8 615.9 C 125.1 623.9 113.0 629.7 101.7 636.4 C 105.0 643.1 108.4 650.1 111.1 657.2 C 117.5 674.7 98.4 686.7 90.0 694.6 L 87.2 696.7 C 86.9 700.2 86.5 704.9 86.5 708.6 C 86.5 715.3 91.0 725.3 91.0 725.3 L 84.5 718.6 L 78.0 725.3 C 78.0 725.3 82.5 715.3 82.5 708.6 C 82.5 704.9 82.1 700.3 81.8 696.7 L 79.0 694.6 C 70.6 686.7 51.5 674.7 57.9 657.2 C 60.6 650.1 64.0 643.1 67.3 636.4 C 56.0 629.7 43.9 623.9 33.2 615.9 C 30.6 614.0 29.6 609.6 30.9 606.0 L 42.1 574.6 C 42.7 572.7 43.9 571.3 45.3 570.7 C 45.9 570.4 46.5 570.3 47.1 570.3 C 48.0 570.3 48.8 570.6 49.6 571.2 L 84.5 596.0 L 119.4 571.2 C 120.2 570.6 121.0 570.3 121.9 570.3 C 122.5 570.3 123.1 570.4 123.7 570.7 C 125.1 571.3 126.3 572.7 126.9 574.6 L 138.1 606.0 C 139.4 609.6 138.4 614.0 135.8 615.9 M 78.9 666.8 C 78.2 662.8 75.2 660.1 72.3 660.7 C 69.4 661.2 67.6 664.9 68.4 668.9 C 69.1 672.8 72.0 675.6 75.0 675.0 C 77.9 674.4 79.7 670.8 78.9 666.8 M 97.1 660.7 C 94.2 660.1 91.3 662.8 90.5 666.8 C 89.8 670.8 91.6 674.4 94.5 675.0 C 97.4 675.6 100.4 672.8 101.1 668.9 C 101.8 664.9 100.1 661.2 97.1 660.7 " fill="#D0272B"></path></g></g></g></g><g><clipPath id="clip0x6000010ba1c0"><path d="M 39.5 574.6 L 129.5 574.6 L 129.5 507.6 L 39.5 507.6 Z M 39.5 574.6 "></path></clipPath><g clip-path="url(#clip0x6000010ba1c0)"><g><clipPath id="clip0x6000010ba340"><path d="M 39.5 507.6 L 129.5 507.6 L 129.5 574.6 L 39.5 574.6 Z M 39.5 507.6 "></path></clipPath><g clip-path="url(#clip0x6000010ba340)"><path d="M 49.3 511.1 C 49.8 509.6 50.8 508.4 52.0 507.9 C 52.5 507.7 52.9 507.6 53.4 507.6 C 54.2 507.6 54.9 507.8 55.6 508.3 L 84.5 528.9 L 113.5 508.4 C 114.2 507.9 114.9 507.7 115.6 507.7 C 116.1 507.7 116.6 507.8 117.1 508.0 C 118.3 508.6 119.2 509.7 119.8 511.3 L 129.0 537.4 C 130.1 540.5 129.2 544.1 127.0 545.7 L 87.0 573.9 C 86.2 574.5 85.3 574.7 84.5 574.6 C 83.6 574.7 82.7 574.5 82.0 573.9 L 42.0 545.5 C 39.8 543.9 38.9 540.3 40.0 537.2 L 49.3 511.1 " fill="#005369"></path></g></g></g></g><g><clipPath id="clip0x6000010ba580"><path d="M 39.5 507.6 L 129.5 507.6 L 129.5 440.6 L 39.5 440.6 Z M 39.5 507.6 "></path></clipPath><g clip-path="url(#clip0x6000010ba580)"><g><clipPath id="clip0x6000010ba700"><path d="M 39.5 440.6 L 129.5 440.6 L 129.5 507.6 L 39.5 507.6 Z M 39.5 440.6 "></path></clipPath><g clip-path="url(#clip0x6000010ba700)"><path d="M 49.3 444.1 C 49.8 442.6 50.8 441.4 52.0 440.9 C 52.5 440.7 52.9 440.5 53.4 440.6 C 54.2 440.6 54.9 440.8 55.6 441.3 L 84.5 461.8 L 113.5 441.4 C 114.2 440.9 114.9 440.7 115.6 440.7 C 116.1 440.7 116.6 440.8 117.1 441.0 C 118.3 441.5 119.2 442.7 119.8 444.2 L 129.0 470.4 C 130.1 473.4 129.2 477.1 127.0 478.6 L 87.0 506.9 C 86.2 507.4 85.3 507.7 84.5 507.6 C 83.6 507.7 82.7 507.4 82.0 506.9 L 42.0 478.5 C 39.8 476.9 38.9 473.2 40.0 470.2 L 49.3 444.1 " fill="#D0272B"></path></g></g></g></g><g><clipPath id="clip0x6000010ba940"><path d="M 39.5 440.6 L 129.5 440.6 L 129.5 373.5 L 39.5 373.5 Z M 39.5 440.6 "></path></clipPath><g clip-path="url(#clip0x6000010ba940)"><g><clipPath id="clip0x6000010baac0"><path d="M 39.5 373.5 L 129.5 373.5 L 129.5 440.6 L 39.5 440.6 Z M 39.5 373.5 "></path></clipPath><g clip-path="url(#clip0x6000010baac0)"><path d="M 49.3 377.1 C 49.8 375.5 50.8 374.4 52.0 373.8 C 52.5 373.6 52.9 373.5 53.4 373.5 C 54.2 373.5 54.9 373.8 55.6 374.2 L 84.5 394.8 L 113.5 374.4 C 114.2 373.9 114.9 373.7 115.6 373.7 C 116.1 373.7 116.6 373.8 117.1 374.0 C 118.3 374.5 119.2 375.7 119.8 377.2 L 129.0 403.4 C 130.1 406.4 129.2 410.0 127.0 411.6 L 87.0 439.9 C 86.2 440.4 85.3 440.6 84.5 440.5 C 83.6 440.6 82.7 440.4 82.0 439.8 L 42.0 411.4 C 39.8 409.9 38.9 406.2 40.0 403.2 L 49.3 377.1 " fill="#005369"></path></g></g></g></g><g><clipPath id="clip0x6000010bad00"><path d="M 39.5 373.5 L 129.5 373.5 L 129.5 306.5 L 39.5 306.5 Z M 39.5 373.5 "></path></clipPath><g clip-path="url(#clip0x6000010bad00)"><g><clipPath id="clip0x6000010bae80"><path d="M 39.5 306.5 L 129.5 306.5 L 129.5 373.5 L 39.5 373.5 Z M 39.5 306.5 "></path></clipPath><g clip-path="url(#clip0x6000010bae80)"><path d="M 49.3 310.0 C 49.8 308.5 50.8 307.3 52.0 306.8 C 52.5 306.6 52.9 306.5 53.4 306.5 C 54.2 306.5 54.9 306.7 55.6 307.2 L 84.5 327.8 L 113.5 307.3 C 114.2 306.9 114.9 306.6 115.6 306.6 C 116.1 306.6 116.6 306.7 117.1 306.9 C 118.3 307.5 119.2 308.6 119.8 310.2 L 129.0 336.3 C 130.1 339.4 129.2 343.0 127.0 344.6 L 87.0 372.8 C 86.2 373.4 85.3 373.6 84.5 373.5 C 83.6 373.6 82.7 373.4 82.0 372.8 L 42.0 344.4 C 39.8 342.8 38.9 339.2 40.0 336.1 L 49.3 310.0 " fill="#D0272B"></path></g></g></g></g><text xml:space="preserve" font-family="Facit-Bold,Facit" font-weight="bold" font-size="76.0" fill="#424242" transform="matrix(1.00, 0.00, -0.00, -1.00, 186.0, 640.0)">M</text><text xml:space="preserve" font-family="Facit-Bold,Facit" font-weight="bold" font-size="76.0" fill="#424242" transform="matrix(1.00, 0.00, -0.00, -1.00, 251.8, 640.0)">o</text><text xml:space="preserve" font-family="Facit-Bold,Facit" font-weight="bold" font-size="76.0" fill="#424242" transform="matrix(1.00, 0.00, -0.00, -1.00, 294.4, 640.0)">r</text><text xml:space="preserve" font-family="Facit-Bold,Facit" font-weight="bold" font-size="76.0" fill="#424242" transform="matrix(1.00, 0.00, -0.00, -1.00, 323.5, 640.0)">e</text><text xml:space="preserve" font-family="Facit-Bold,Facit" font-weight="bold" font-size="76.0" fill="#424242" transform="matrix(1.00, 0.00, -0.00, -1.00, 364.9, 640.0)">o</text><text xml:space="preserve" font-family="Facit-Bold,Facit" font-weight="bold" font-size="76.0" fill="#424242" transform="matrix(1.00, 0.00, -0.00, -1.00, 406.2, 640.0)">v</text><text xml:space="preserve" font-family="Facit-Bold,Facit" font-weight="bold" font-size="76.0" fill="#424242" transform="matrix(1.00, 0.00, -0.00, -1.00, 444.8, 640.0)">e</text><text xml:space="preserve" font-family="Facit-Bold,Facit" font-weight="bold" font-size="76.0" fill="#424242" transform="matrix(1.00, 0.00, -0.00, -1.00, 486.2, 640.0)">r</text><text xml:space="preserve" font-family="Facit-Bold,Facit" font-weight="bold" font-size="76.0" fill="#424242" transform="matrix(1.00, 0.00, -0.00, -1.00, 510.2, 640.0)">,</text><text xml:space="preserve" font-family="Facit-Bold,Facit" font-weight="bold" font-size="76.0" fill="#424242" transform="matrix(1.00, 0.00, -0.00, -1.00, 531.8, 640.0)"> </text><text xml:space="preserve" font-family="Facit-Bold,Facit" font-weight="bold" font-size="76.0" fill="#424242" transform="matrix(1.00, 0.00, -0.00, -1.00, 546.5, 640.0)">S</text><text xml:space="preserve" font-family="Facit-Bold,Facit" font-weight="bold" font-size="76.0" fill="#424242" transform="matrix(1.00, 0.00, -0.00, -1.00, 587.2, 640.0)">c</text><text xml:space="preserve" font-family="Facit-Bold,Facit" font-weight="bold" font-size="76.0" fill="#424242" transform="matrix(1.00, 0.00, -0.00, -1.00, 623.6, 640.0)">i</text><text xml:space="preserve" font-family="Facit-Bold,Facit" font-weight="bold" font-size="76.0" fill="#424242" transform="matrix(1.00, 0.00, -0.00, -1.00, 645.1, 640.0)">P</text><text xml:space="preserve" font-family="Facit-Bold,Facit" font-weight="bold" font-size="76.0" fill="#424242" transform="matrix(1.00, 0.00, -0.00, -1.00, 691.1, 640.0)">y</text><text xml:space="preserve" font-family="Facit-Bold,Facit" font-weight="bold" font-size="76.0" fill="#424242" transform="matrix(1.00, 0.00, -0.00, -1.00, 731.7, 640.0)"> </text><text xml:space="preserve" font-family="Facit-Bold,Facit" font-weight="bold" font-size="76.0" fill="#424242" transform="matrix(1.00, 0.00, -0.00, -1.00, 746.5, 640.0)">t</text><text xml:space="preserve" font-family="Facit-Bold,Facit" font-weight="bold" font-size="76.0" fill="#424242" transform="matrix(1.00, 0.00, -0.00, -1.00, 779.4, 640.0)">r</text><text xml:space="preserve" font-family="Facit-Bold,Facit" font-weight="bold" font-size="76.0" fill="#424242" transform="matrix(1.00, 0.00, -0.00, -1.00, 809.5, 640.0)">a</text><text xml:space="preserve" font-family="Facit-Bold,Facit" font-weight="bold" font-size="76.0" fill="#424242" transform="matrix(1.00, 0.00, -0.00, -1.00, 849.1, 640.0)">c</text><text xml:space="preserve" font-family="Facit-Bold,Facit" font-weight="bold" font-size="76.0" fill="#424242" transform="matrix(1.00, 0.00, -0.00, -1.00, 885.5, 640.0)">k</text><text xml:space="preserve" font-family="Facit-Bold,Facit" font-weight="bold" font-size="76.0" fill="#424242" transform="matrix(1.00, 0.00, -0.00, -1.00, 928.1, 640.0)">!</text><text xml:space="preserve" font-family="Helvetica-Light,Helvetica" font-size="36.0" fill="#000000" transform="matrix(1.00, 0.00, -0.00, -1.00, 195.6, 578.4)">A</text><text xml:space="preserve" font-family="Helvetica-Light,Helvetica" font-size="36.0" fill="#000000" transform="matrix(1.00, 0.00, -0.00, -1.00, 219.6, 578.4)">n</text><text xml:space="preserve" font-family="Helvetica-Light,Helvetica" font-size="36.0" fill="#000000" transform="matrix(1.00, 0.00, -0.00, -1.00, 239.7, 578.4)"> </text><text xml:space="preserve" font-family="Helvetica-Light,Helvetica" font-size="36.0" fill="#000000" transform="matrix(1.00, 0.00, -0.00, -1.00, 249.7, 578.4)">e</text><text xml:space="preserve" font-family="Helvetica-Light,Helvetica" font-size="36.0" fill="#000000" transform="matrix(1.00, 0.00, -0.00, -1.00, 269.7, 578.4)">x</text><text xml:space="preserve" font-family="Helvetica-Light,Helvetica" font-size="36.0" fill="#000000" transform="matrix(1.00, 0.00, -0.00, -1.00, 287.7, 578.4)">t</text><text xml:space="preserve" font-family="Helvetica-Light,Helvetica" font-size="36.0" fill="#000000" transform="matrix(1.00, 0.00, -0.00, -1.00, 297.7, 578.4)">e</text><text xml:space="preserve" font-family="Helvetica-Light,Helvetica" font-size="36.0" fill="#000000" transform="matrix(1.00, 0.00, -0.00, -1.00, 317.7, 578.4)">n</text><text xml:space="preserve" font-family="Helvetica-Light,Helvetica" font-size="36.0" fill="#000000" transform="matrix(1.00, 0.00, -0.00, -1.00, 337.7, 578.4)">d</text><text xml:space="preserve" font-family="Helvetica-Light,Helvetica" font-size="36.0" fill="#000000" transform="matrix(1.00, 0.00, -0.00, -1.00, 359.7, 578.4)">e</text><text xml:space="preserve" font-family="Helvetica-Light,Helvetica" font-size="36.0" fill="#000000" transform="matrix(1.00, 0.00, -0.00, -1.00, 379.7, 578.4)">d</text><text xml:space="preserve" font-family="Helvetica-Light,Helvetica" font-size="36.0" fill="#000000" transform="matrix(1.00, 0.00, -0.00, -1.00, 401.7, 578.4)"> </text><text xml:space="preserve" font-family="Helvetica-Bold,Helvetica" font-weight="bold" font-size="36.0" fill="#005468" transform="matrix(1.00, 0.00, -0.00, -1.00, 411.7, 578.4)">2</text><text xml:space="preserve" font-family="Helvetica-Bold,Helvetica" font-weight="bold" font-size="36.0" fill="#005468" transform="matrix(1.00, 0.00, -0.00, -1.00, 431.8, 578.4)">-</text><text xml:space="preserve" font-family="Helvetica-Bold,Helvetica" font-weight="bold" font-size="36.0" fill="#005468" transform="matrix(1.00, 0.00, -0.00, -1.00, 443.8, 578.4)">3</text><text xml:space="preserve" font-family="Helvetica-Bold,Helvetica" font-weight="bold" font-size="36.0" fill="#005468" transform="matrix(1.00, 0.00, -0.00, -1.00, 463.8, 578.4)"> </text><text xml:space="preserve" font-family="Helvetica-Bold,Helvetica" font-weight="bold" font-size="36.0" fill="#005468" transform="matrix(1.00, 0.00, -0.00, -1.00, 473.8, 578.4)">p</text><text xml:space="preserve" font-family="Helvetica-Bold,Helvetica" font-weight="bold" font-size="36.0" fill="#005468" transform="matrix(1.00, 0.00, -0.00, -1.00, 495.8, 578.4)">a</text><text xml:space="preserve" font-family="Helvetica-Bold,Helvetica" font-weight="bold" font-size="36.0" fill="#005468" transform="matrix(1.00, 0.00, -0.00, -1.00, 515.8, 578.4)">g</text><text xml:space="preserve" font-family="Helvetica-Bold,Helvetica" font-weight="bold" font-size="36.0" fill="#005468" transform="matrix(1.00, 0.00, -0.00, -1.00, 537.8, 578.4)">e</text><text xml:space="preserve" font-family="Helvetica-Bold,Helvetica" font-weight="bold" font-size="36.0" fill="#005468" transform="matrix(1.00, 0.00, -0.00, -1.00, 557.8, 578.4)">s</text><text xml:space="preserve" font-family="Helvetica-Bold,Helvetica" font-weight="bold" font-size="36.0" fill="#005468" transform="matrix(1.00, 0.00, -0.00, -1.00, 577.8, 578.4)"> </text><text xml:space="preserve" font-family="Helvetica-Bold,Helvetica" font-weight="bold" font-size="36.0" fill="#005468" transform="matrix(1.00, 0.00, -0.00, -1.00, 587.8, 578.4)">a</text><text xml:space="preserve" font-family="Helvetica-Bold,Helvetica" font-weight="bold" font-size="36.0" fill="#005468" transform="matrix(1.00, 0.00, -0.00, -1.00, 607.9, 578.4)">b</text><text xml:space="preserve" font-family="Helvetica-Bold,Helvetica" font-weight="bold" font-size="36.0" fill="#005468" transform="matrix(1.00, 0.00, -0.00, -1.00, 629.8, 578.4)">s</text><text xml:space="preserve" font-family="Helvetica-Bold,Helvetica" font-weight="bold" font-size="36.0" fill="#005468" transform="matrix(1.00, 0.00, -0.00, -1.00, 649.9, 578.4)">t</text><text xml:space="preserve" font-family="Helvetica-Bold,Helvetica" font-weight="bold" font-size="36.0" fill="#005468" transform="matrix(1.00, 0.00, -0.00, -1.00, 661.9, 578.4)">r</text><text xml:space="preserve" font-family="Helvetica-Bold,Helvetica" font-weight="bold" font-size="36.0" fill="#005468" transform="matrix(1.00, 0.00, -0.00, -1.00, 675.9, 578.4)">a</text><text xml:space="preserve" font-family="Helvetica-Bold,Helvetica" font-weight="bold" font-size="36.0" fill="#005468" transform="matrix(1.00, 0.00, -0.00, -1.00, 695.9, 578.4)">c</text><text xml:space="preserve" font-family="Helvetica-Bold,Helvetica" font-weight="bold" font-size="36.0" fill="#005468" transform="matrix(1.00, 0.00, -0.00, -1.00, 715.9, 578.4)">t</text><text xml:space="preserve" font-family="Helvetica-Light,Helvetica" font-size="36.0" fill="#000000" transform="matrix(1.00, 0.00, -0.00, -1.00, 727.9, 578.4)"> </text><text xml:space="preserve" font-family="Helvetica-Light,Helvetica" font-size="36.0" fill="#000000" transform="matrix(1.00, 0.00, -0.00, -1.00, 737.9, 578.4)">r</text><text xml:space="preserve" font-family="Helvetica-Light,Helvetica" font-size="36.0" fill="#000000" transform="matrix(1.00, 0.00, -0.00, -1.00, 749.2, 578.4)">e</text><text xml:space="preserve" font-family="Helvetica-Light,Helvetica" font-size="36.0" fill="#000000" transform="matrix(1.00, 0.00, -0.00, -1.00, 769.2, 578.4)">q</text><text xml:space="preserve" font-family="Helvetica-Light,Helvetica" font-size="36.0" fill="#000000" transform="matrix(1.00, 0.00, -0.00, -1.00, 791.2, 578.4)">u</text><text xml:space="preserve" font-family="Helvetica-Light,Helvetica" font-size="36.0" fill="#000000" transform="matrix(1.00, 0.00, -0.00, -1.00, 811.3, 578.4)">i</text><text xml:space="preserve" font-family="Helvetica-Light,Helvetica" font-size="36.0" fill="#000000" transform="matrix(1.00, 0.00, -0.00, -1.00, 819.2, 578.4)">r</text><text xml:space="preserve" font-family="Helvetica-Light,Helvetica" font-size="36.0" fill="#000000" transform="matrix(1.00, 0.00, -0.00, -1.00, 830.6, 578.4)">e</text><text xml:space="preserve" font-family="Helvetica-Light,Helvetica" font-size="36.0" fill="#000000" transform="matrix(1.00, 0.00, -0.00, -1.00, 850.6, 578.4)">d</text><text xml:space="preserve" font-family="Helvetica-Light,Helvetica" font-size="36.0" fill="#000000" transform="matrix(1.00, 0.00, -0.00, -1.00, 872.6, 578.4)">.</text><text xml:space="preserve" font-family="Helvetica-Light,Helvetica" font-size="36.0" fill="#000000" transform="matrix(1.00, 0.00, -0.00, -1.00, 882.6, 578.4)"> </text><text xml:space="preserve" font-family="Helvetica-Light,Helvetica" font-size="36.0" fill="#000000" transform="matrix(1.00, 0.00, -0.00, -1.00, 195.6, 526.8)">I</text><text xml:space="preserve" font-family="Helvetica-Light,Helvetica" font-size="36.0" fill="#000000" transform="matrix(1.00, 0.00, -0.00, -1.00, 205.6, 526.8)">n</text><text xml:space="preserve" font-family="Helvetica-Light,Helvetica" font-size="36.0" fill="#000000" transform="matrix(1.00, 0.00, -0.00, -1.00, 225.7, 526.8)"> </text><text xml:space="preserve" font-family="Helvetica-Bold,Helvetica" font-weight="bold" font-size="36.0" fill="#D0272B" transform="matrix(1.00, 0.00, -0.00, -1.00, 235.7, 526.8)">E</text><text xml:space="preserve" font-family="Helvetica-Bold,Helvetica" font-weight="bold" font-size="36.0" fill="#D0272B" transform="matrix(1.00, 0.00, -0.00, -1.00, 259.7, 526.8)">n</text><text xml:space="preserve" font-family="Helvetica-Bold,Helvetica" font-weight="bold" font-size="36.0" fill="#D0272B" transform="matrix(1.00, 0.00, -0.00, -1.00, 281.7, 526.8)">g</text><text xml:space="preserve" font-family="Helvetica-Bold,Helvetica" font-weight="bold" font-size="36.0" fill="#D0272B" transform="matrix(1.00, 0.00, -0.00, -1.00, 303.6, 526.8)">l</text><text xml:space="preserve" font-family="Helvetica-Bold,Helvetica" font-weight="bold" font-size="36.0" fill="#D0272B" transform="matrix(1.00, 0.00, -0.00, -1.00, 313.6, 526.8)">i</text><text xml:space="preserve" font-family="Helvetica-Bold,Helvetica" font-weight="bold" font-size="36.0" fill="#D0272B" transform="matrix(1.00, 0.00, -0.00, -1.00, 323.6, 526.8)">s</text><text xml:space="preserve" font-family="Helvetica-Bold,Helvetica" font-weight="bold" font-size="36.0" fill="#D0272B" transform="matrix(1.00, 0.00, -0.00, -1.00, 343.7, 526.8)">h</text><text xml:space="preserve" font-family="Helvetica-Light,Helvetica" font-size="36.0" fill="#000000" transform="matrix(1.00, 0.00, -0.00, -1.00, 365.7, 526.8)">.</text><g><clipPath id="clip0x6000010bcec0"><path d="M 31.8 306.5 L 137.2 306.5 L 137.2 176.8 L 31.8 176.8 Z M 31.8 306.5 "></path></clipPath><g clip-path="url(#clip0x6000010bcec0)"><g><clipPath id="clip0x6000010bd040"><path d="M 31.8 176.8 L 137.2 176.8 L 137.2 306.5 L 31.8 306.5 Z M 31.8 176.8 "></path></clipPath><g clip-path="url(#clip0x6000010bd040)"><path d="M 137.1 184.3 L 120.7 248.3 L 129.3 269.1 C 130.4 272.1 129.5 275.8 127.3 277.4 L 87.3 305.8 C 86.6 306.3 85.7 306.6 84.9 306.5 L 84.5 306.5 L 84.1 306.5 C 83.3 306.6 82.4 306.3 81.7 305.8 L 41.7 277.4 C 39.5 275.8 38.6 272.1 39.7 269.1 L 48.3 248.3 L 31.9 184.3 C 31.6 182.4 32.0 180.5 32.9 179.1 C 33.7 177.6 35.0 176.8 36.4 176.8 L 84.0 176.9 L 84.4 176.9 L 84.5 176.9 L 84.6 176.9 L 85.0 176.9 L 132.6 176.8 C 134.0 176.8 135.3 177.6 136.1 179.1 C 137.0 180.5 137.4 182.4 137.1 184.3 " fill="#005369"></path></g></g></g></g></g></svg>