<?xml version="1.0" encoding="UTF-8" standalone="no"?><svg xmlns="http://www.w3.org/2000/svg" xmlns:xlink="http://www.w3.org/1999/xlink" clip-rule="evenodd" stroke-miterlimit="10" viewBox="0 0 681 80"><desc>SVG generated by Keynote</desc><defs></defs><g transform="matrix(1.00, 0.00, -0.00, -1.00, 0.0, 80.0)"><text xml:space="preserve" font-family="Facit-Bold,Facit" font-weight="bold" font-size="76.0" fill="#424242" transform="matrix(1.00, 0.00, -0.00, -1.00, 1.0, 20.0)">T</text><text xml:space="preserve" font-family="Facit-Bold,Facit" font-weight="bold" font-size="76.0" fill="#424242" transform="matrix(1.00, 0.00, -0.00, -1.00, 35.4, 20.0)">o</text><text xml:space="preserve" font-family="Facit-Bold,Facit" font-weight="bold" font-size="76.0" fill="#424242" transform="matrix(1.00, 0.00, -0.00, -1.00, 77.9, 20.0)">p</text><text xml:space="preserve" font-family="Facit-Bold,Facit" font-weight="bold" font-size="76.0" fill="#424242" transform="matrix(1.00, 0.00, -0.00, -1.00, 121.9, 20.0)">i</text><text xml:space="preserve" font-family="Facit-Bold,Facit" font-weight="bold" font-size="76.0" fill="#424242" transform="matrix(1.00, 0.00, -0.00, -1.00, 143.3, 20.0)">c</text><text xml:space="preserve" font-family="Facit-Bold,Facit" font-weight="bold" font-size="76.0" fill="#424242" transform="matrix(1.00, 0.00, -0.00, -1.00, 178.9, 20.0)">s</text><text xml:space="preserve" font-family="Facit-Bold,Facit" font-weight="bold" font-size="76.0" fill="#424242" transform="matrix(1.00, 0.00, -0.00, -1.00, 212.7, 20.0)"> </text><text xml:space="preserve" font-family="Facit-Bold,Facit" font-weight="bold" font-size="76.0" fill="#424242" transform="matrix(1.00, 0.00, -0.00, -1.00, 227.4, 20.0)">P</text><text xml:space="preserve" font-family="Facit-Bold,Facit" font-weight="bold" font-size="76.0" fill="#424242" transform="matrix(1.00, 0.00, -0.00, -1.00, 273.4, 20.0)">y</text><text xml:space="preserve" font-family="Facit-Bold,Facit" font-weight="bold" font-size="76.0" fill="#424242" transform="matrix(1.00, 0.00, -0.00, -1.00, 314.1, 20.0)">C</text><text xml:space="preserve" font-family="Facit-Bold,Facit" font-weight="bold" font-size="76.0" fill="#424242" transform="matrix(1.00, 0.00, -0.00, -1.00, 355.2, 20.0)">o</text><text xml:space="preserve" font-family="Facit-Bold,Facit" font-weight="bold" font-size="76.0" fill="#424242" transform="matrix(1.00, 0.00, -0.00, -1.00, 397.8, 20.0)">n</text><text xml:space="preserve" font-family="Facit-Bold,Facit" font-weight="bold" font-size="76.0" fill="#424242" transform="matrix(1.00, 0.00, -0.00, -1.00, 441.0, 20.0)"> </text><text xml:space="preserve" font-family="Facit-Bold,Facit" font-weight="bold" font-size="76.0" fill="#424242" transform="matrix(1.00, 0.00, -0.00, -1.00, 455.7, 20.0)">c</text><text xml:space="preserve" font-family="Facit-Bold,Facit" font-weight="bold" font-size="76.0" fill="#424242" transform="matrix(1.00, 0.00, -0.00, -1.00, 490.5, 20.0)">o</text><text xml:space="preserve" font-family="Facit-Bold,Facit" font-weight="bold" font-size="76.0" fill="#424242" transform="matrix(1.00, 0.00, -0.00, -1.00, 531.9, 20.0)">v</text><text xml:space="preserve" font-family="Facit-Bold,Facit" font-weight="bold" font-size="76.0" fill="#424242" transform="matrix(1.00, 0.00, -0.00, -1.00, 570.5, 20.0)">e</text><text xml:space="preserve" font-family="Facit-Bold,Facit" font-weight="bold" font-size="76.0" fill="#424242" transform="matrix(1.00, 0.00, -0.00, -1.00, 611.8, 20.0)">r</text><text xml:space="preserve" font-family="Facit-Bold,Facit" font-weight="bold" font-size="76.0" fill="#424242" transform="matrix(1.00, 0.00, -0.00, -1.00, 643.1, 20.0)">?</text></g></svg>