<?xml version="1.0" encoding="UTF-8" standalone="no"?><svg xmlns="http://www.w3.org/2000/svg" xmlns:xlink="http://www.w3.org/1999/xlink" clip-rule="evenodd" stroke-miterlimit="10" viewBox="0 0 73 90"><desc>SVG generated by Keynote</desc><defs></defs><g transform="matrix(1.00, 0.00, -0.00, -1.00, 0.0, 90.0)"><g><clipPath id="clip0x6080012aa0e0"><path d="M 1.2 88.3 L 71.8 88.3 L 71.8 1.3 L 1.2 1.3 Z M 1.2 88.3 "></path></clipPath><g clip-path="url(#clip0x6080012aa0e0)"><g><clipPath id="clip0x6080012aa1a0"><path d="M 1.2 1.3 L 71.8 1.3 L 71.8 88.3 L 1.2 88.3 Z M 1.2 1.3 "></path></clipPath><g clip-path="url(#clip0x6080012aa1a0)"><path d="M 71.8 6.4 L 60.8 49.2 L 66.6 63.2 C 67.3 65.2 66.7 67.7 65.2 68.7 L 38.4 87.8 C 37.9 88.2 37.4 88.3 36.8 88.3 L 36.5 88.3 L 36.3 88.3 C 35.7 88.3 35.1 88.2 34.6 87.8 L 7.8 68.7 C 6.4 67.7 5.8 65.2 6.5 63.2 L 12.3 49.2 L 1.3 6.4 C 1.1 5.1 1.3 3.8 1.9 2.9 C 2.5 1.9 3.4 1.3 4.3 1.3 L 36.2 1.4 L 36.4 1.4 L 36.5 1.4 L 36.6 1.4 L 36.9 1.4 L 68.7 1.3 C 69.7 1.3 70.5 1.9 71.1 2.9 C 71.7 3.8 72.0 5.1 71.8 6.4 " fill="#005369"></path></g></g></g></g></g></svg>