<?xml version="1.0" encoding="UTF-8" standalone="no"?><svg xmlns="http://www.w3.org/2000/svg" xmlns:xlink="http://www.w3.org/1999/xlink" clip-rule="evenodd" stroke-miterlimit="10" viewBox="0 0 404 69"><desc>SVG generated by Keynote</desc><defs></defs><g transform="matrix(1.00, 0.00, -0.00, -1.00, 0.0, 69.0)"><text xml:space="preserve" font-family="Helvetica-Bold,Helvetica" font-weight="bold" font-size="67.0" fill="#424242" transform="matrix(1.00, 0.00, -0.00, -1.00, -1.0, 17.2)">O</text><text xml:space="preserve" font-family="Helvetica-Bold,Helvetica" font-weight="bold" font-size="67.0" fill="#424242" transform="matrix(1.00, 0.00, -0.00, -1.00, 51.1, 17.2)">r</text><text xml:space="preserve" font-family="Helvetica-Bold,Helvetica" font-weight="bold" font-size="67.0" fill="#424242" transform="matrix(1.00, 0.00, -0.00, -1.00, 77.1, 17.2)"> </text><text xml:space="preserve" font-family="Helvetica-Bold,Helvetica" font-weight="bold" font-size="67.0" fill="#424242" transform="matrix(1.00, 0.00, -0.00, -1.00, 95.7, 17.2)">k</text><text xml:space="preserve" font-family="Helvetica-Bold,Helvetica" font-weight="bold" font-size="67.0" fill="#424242" transform="matrix(1.00, 0.00, -0.00, -1.00, 133.0, 17.2)">e</text><text xml:space="preserve" font-family="Helvetica-Bold,Helvetica" font-weight="bold" font-size="67.0" fill="#424242" transform="matrix(1.00, 0.00, -0.00, -1.00, 170.2, 17.2)">y</text><text xml:space="preserve" font-family="Helvetica-Bold,Helvetica" font-weight="bold" font-size="67.0" fill="#424242" transform="matrix(1.00, 0.00, -0.00, -1.00, 207.5, 17.2)">w</text><text xml:space="preserve" font-family="Helvetica-Bold,Helvetica" font-weight="bold" font-size="67.0" fill="#424242" transform="matrix(1.00, 0.00, -0.00, -1.00, 259.6, 17.2)">o</text><text xml:space="preserve" font-family="Helvetica-Bold,Helvetica" font-weight="bold" font-size="67.0" fill="#424242" transform="matrix(1.00, 0.00, -0.00, -1.00, 300.5, 17.2)">r</text><text xml:space="preserve" font-family="Helvetica-Bold,Helvetica" font-weight="bold" font-size="67.0" fill="#424242" transform="matrix(1.00, 0.00, -0.00, -1.00, 326.6, 17.2)">d</text><text xml:space="preserve" font-family="Helvetica-Bold,Helvetica" font-weight="bold" font-size="67.0" fill="#424242" transform="matrix(1.00, 0.00, -0.00, -1.00, 367.5, 17.2)">s</text></g></svg>