<?xml version="1.0" encoding="UTF-8" standalone="no"?><svg xmlns="http://www.w3.org/2000/svg" xmlns:xlink="http://www.w3.org/1999/xlink" clip-rule="evenodd" stroke-miterlimit="10" viewBox="0 0 63 48"><desc>SVG generated by Keynote</desc><defs></defs><g transform="matrix(1.00, 0.00, -0.00, -1.00, 0.0, 48.0)"><g><clipPath id="clip0x6000012bb480"><path d="M 1.4 46.6 L 61.7 46.6 L 61.7 1.7 L 1.4 1.7 Z M 1.4 46.6 "></path></clipPath><g clip-path="url(#clip0x6000012bb480)"><g><clipPath id="clip0x6000012bb600"><path d="M 1.4 1.7 L 61.7 1.7 L 61.7 46.6 L 1.4 46.6 Z M 1.4 1.7 "></path></clipPath><g clip-path="url(#clip0x6000012bb600)"><path d="M 7.9 4.1 C 8.3 3.1 8.9 2.3 9.7 1.9 C 10.1 1.8 10.4 1.7 10.7 1.7 C 11.2 1.7 11.7 1.9 12.1 2.2 L 31.5 16.0 L 51.0 2.3 C 51.4 2.0 51.9 1.8 52.4 1.8 C 52.7 1.8 53.1 1.9 53.4 2.0 C 54.2 2.4 54.8 3.2 55.2 4.2 L 61.4 21.7 C 62.1 23.7 61.5 26.2 60.0 27.2 L 33.2 46.2 C 32.7 46.5 32.1 46.7 31.5 46.6 C 30.9 46.7 30.4 46.5 29.8 46.2 L 3.0 27.1 C 1.6 26.1 1.0 23.6 1.7 21.6 L 7.9 4.1 " fill="#D0272B"></path></g></g></g></g></g></svg>