<?xml version="1.0" encoding="UTF-8" standalone="no"?><svg xmlns="http://www.w3.org/2000/svg" xmlns:xlink="http://www.w3.org/1999/xlink" clip-rule="evenodd" stroke-miterlimit="10" viewBox="0 0 761 80"><desc>SVG generated by Keynote</desc><defs></defs><g transform="matrix(1.00, 0.00, -0.00, -1.00, 0.0, 80.0)"><text xml:space="preserve" font-family="Facit-Bold,Facit" font-weight="bold" font-size="76.0" fill="#424242" transform="matrix(1.00, 0.00, -0.00, -1.00, -2.0, 20.0)">M</text><text xml:space="preserve" font-family="Facit-Bold,Facit" font-weight="bold" font-size="76.0" fill="#424242" transform="matrix(1.00, 0.00, -0.00, -1.00, 63.8, 20.0)">o</text><text xml:space="preserve" font-family="Facit-Bold,Facit" font-weight="bold" font-size="76.0" fill="#424242" transform="matrix(1.00, 0.00, -0.00, -1.00, 106.4, 20.0)">r</text><text xml:space="preserve" font-family="Facit-Bold,Facit" font-weight="bold" font-size="76.0" fill="#424242" transform="matrix(1.00, 0.00, -0.00, -1.00, 135.5, 20.0)">e</text><text xml:space="preserve" font-family="Facit-Bold,Facit" font-weight="bold" font-size="76.0" fill="#424242" transform="matrix(1.00, 0.00, -0.00, -1.00, 176.9, 20.0)">o</text><text xml:space="preserve" font-family="Facit-Bold,Facit" font-weight="bold" font-size="76.0" fill="#424242" transform="matrix(1.00, 0.00, -0.00, -1.00, 218.2, 20.0)">v</text><text xml:space="preserve" font-family="Facit-Bold,Facit" font-weight="bold" font-size="76.0" fill="#424242" transform="matrix(1.00, 0.00, -0.00, -1.00, 256.8, 20.0)">e</text><text xml:space="preserve" font-family="Facit-Bold,Facit" font-weight="bold" font-size="76.0" fill="#424242" transform="matrix(1.00, 0.00, -0.00, -1.00, 298.2, 20.0)">r</text><text xml:space="preserve" font-family="Facit-Bold,Facit" font-weight="bold" font-size="76.0" fill="#424242" transform="matrix(1.00, 0.00, -0.00, -1.00, 322.2, 20.0)">,</text><text xml:space="preserve" font-family="Facit-Bold,Facit" font-weight="bold" font-size="76.0" fill="#424242" transform="matrix(1.00, 0.00, -0.00, -1.00, 343.8, 20.0)"> </text><text xml:space="preserve" font-family="Facit-Bold,Facit" font-weight="bold" font-size="76.0" fill="#424242" transform="matrix(1.00, 0.00, -0.00, -1.00, 358.5, 20.0)">S</text><text xml:space="preserve" font-family="Facit-Bold,Facit" font-weight="bold" font-size="76.0" fill="#424242" transform="matrix(1.00, 0.00, -0.00, -1.00, 399.2, 20.0)">c</text><text xml:space="preserve" font-family="Facit-Bold,Facit" font-weight="bold" font-size="76.0" fill="#424242" transform="matrix(1.00, 0.00, -0.00, -1.00, 435.6, 20.0)">i</text><text xml:space="preserve" font-family="Facit-Bold,Facit" font-weight="bold" font-size="76.0" fill="#424242" transform="matrix(1.00, 0.00, -0.00, -1.00, 457.1, 20.0)">P</text><text xml:space="preserve" font-family="Facit-Bold,Facit" font-weight="bold" font-size="76.0" fill="#424242" transform="matrix(1.00, 0.00, -0.00, -1.00, 503.1, 20.0)">y</text><text xml:space="preserve" font-family="Facit-Bold,Facit" font-weight="bold" font-size="76.0" fill="#424242" transform="matrix(1.00, 0.00, -0.00, -1.00, 543.7, 20.0)"> </text><text xml:space="preserve" font-family="Facit-Bold,Facit" font-weight="bold" font-size="76.0" fill="#424242" transform="matrix(1.00, 0.00, -0.00, -1.00, 558.5, 20.0)">t</text><text xml:space="preserve" font-family="Facit-Bold,Facit" font-weight="bold" font-size="76.0" fill="#424242" transform="matrix(1.00, 0.00, -0.00, -1.00, 591.4, 20.0)">r</text><text xml:space="preserve" font-family="Facit-Bold,Facit" font-weight="bold" font-size="76.0" fill="#424242" transform="matrix(1.00, 0.00, -0.00, -1.00, 621.5, 20.0)">a</text><text xml:space="preserve" font-family="Facit-Bold,Facit" font-weight="bold" font-size="76.0" fill="#424242" transform="matrix(1.00, 0.00, -0.00, -1.00, 661.1, 20.0)">c</text><text xml:space="preserve" font-family="Facit-Bold,Facit" font-weight="bold" font-size="76.0" fill="#424242" transform="matrix(1.00, 0.00, -0.00, -1.00, 697.5, 20.0)">k</text><text xml:space="preserve" font-family="Facit-Bold,Facit" font-weight="bold" font-size="76.0" fill="#424242" transform="matrix(1.00, 0.00, -0.00, -1.00, 740.1, 20.0)">!</text></g></svg>