<?xml version="1.0" encoding="UTF-8" standalone="no"?><svg xmlns="http://www.w3.org/2000/svg" xmlns:xlink="http://www.w3.org/1999/xlink" clip-rule="evenodd" stroke-miterlimit="10" viewBox="0 0 221 79"><desc>SVG generated by Keynote</desc><defs></defs><g transform="matrix(1.00, 0.00, -0.00, -1.00, 0.0, 79.0)"><g><clipPath id="clip0x6000012b9500"><path d="M 1.8 77.6 L 219.8 77.6 L 219.8 1.7 L 1.8 1.7 Z M 1.8 77.6 "></path></clipPath><g clip-path="url(#clip0x6000012b9500)"><g><clipPath id="clip0x6000012b9680"><path d="M 1.8 1.7 L 219.8 1.7 L 219.8 77.6 L 1.8 77.6 Z M 1.8 1.7 "></path></clipPath><g clip-path="url(#clip0x6000012b9680)"><path d="M 151.7 52.7 L 148.1 52.7 L 148.1 40.3 L 151.7 40.3 C 152.6 40.3 153.4 40.6 154.0 41.3 C 154.7 41.9 155.0 42.7 155.0 43.7 L 155.0 49.4 C 155.0 50.4 154.7 51.2 154.1 51.8 C 153.5 52.4 152.7 52.7 151.7 52.7 " fill="#6C6D70"></path><path d="M 126.8 34.4 L 131.2 34.4 L 129.0 49.8 Z M 126.8 34.4 " fill="#6C6D70"></path><path d="M 167.7 34.4 L 172.1 34.4 L 169.9 49.8 Z M 167.7 34.4 " fill="#6C6D70"></path><path d="M 200.9 45.4 L 194.8 45.4 L 194.8 50.0 C 194.8 50.9 194.4 51.7 193.8 52.4 C 193.1 53.0 192.3 53.4 191.4 53.4 C 190.4 53.4 189.6 53.0 189.0 52.4 C 188.3 51.7 188.0 50.9 188.0 50.0 L 188.0 28.6 C 188.0 27.7 188.3 26.9 189.0 26.2 C 189.6 25.6 190.4 25.3 191.4 25.3 C 192.3 25.3 193.1 25.6 193.8 26.2 C 194.4 26.9 194.8 27.7 194.8 28.6 L 194.8 34.0 L 200.9 34.0 L 200.9 28.6 C 200.9 26.0 199.9 23.8 198.1 22.0 C 196.3 20.2 194.1 19.3 191.6 19.3 C 189.0 19.3 186.8 20.2 184.9 22.0 C 183.1 23.8 182.2 26.0 182.2 28.6 L 182.2 49.9 C 182.2 52.4 183.1 54.6 185.0 56.5 C 186.8 58.3 189.0 59.2 191.6 59.2 C 194.1 59.2 196.3 58.3 198.2 56.4 C 200.0 54.6 200.9 52.4 200.9 49.9 Z M 174.4 19.8 L 173.0 28.7 L 166.8 28.7 L 165.4 19.8 L 159.3 19.8 L 165.9 58.8 L 174.0 58.8 L 180.5 19.8 Z M 151.5 34.4 L 148.1 34.4 L 148.1 19.8 L 142.2 19.8 L 142.2 58.8 L 151.5 58.8 C 154.4 58.8 156.6 57.8 158.3 56.0 C 159.9 54.3 160.7 52.1 160.7 49.4 L 160.7 43.8 C 160.7 41.2 159.8 39.0 158.0 37.2 C 156.2 35.4 154.1 34.4 151.5 34.4 M 133.4 19.8 L 132.1 28.7 L 125.9 28.7 L 124.5 19.8 L 118.4 19.8 L 125.0 58.8 L 133.1 58.8 L 139.6 19.8 Z M 100.8 28.2 L 97.0 28.2 L 97.0 19.8 L 91.2 19.8 L 91.2 28.2 L 80.8 28.2 L 80.8 34.1 L 91.2 58.8 L 97.0 58.8 L 97.0 34.1 L 100.8 34.1 Z M 77.0 19.8 L 71.1 19.8 L 71.1 49.8 L 66.1 49.8 L 66.1 53.9 C 67.5 54.1 68.9 54.6 70.2 55.5 C 71.4 56.4 72.4 57.5 72.9 58.8 L 77.0 58.8 Z M 63.6 28.7 C 63.6 26.1 62.7 23.9 60.8 22.1 C 59.0 20.3 56.8 19.3 54.3 19.3 C 51.7 19.3 49.5 20.3 47.7 22.1 C 45.8 23.9 44.9 26.1 44.9 28.7 L 44.9 49.9 C 44.9 52.5 45.8 54.7 47.7 56.6 C 49.5 58.4 51.7 59.3 54.3 59.3 C 56.9 59.3 59.1 58.4 60.9 56.5 C 62.7 54.7 63.6 52.5 63.6 49.9 Z M 42.0 25.5 L 42.0 19.8 L 23.3 19.8 L 23.3 25.2 C 23.3 25.3 23.7 26.0 24.6 27.3 C 25.0 27.9 25.4 28.6 25.9 29.3 L 27.4 31.5 C 28.3 32.7 29.7 34.7 31.7 37.4 C 33.5 39.9 34.8 42.2 35.7 44.3 C 36.4 46.0 36.8 47.5 36.8 49.0 C 36.8 50.2 36.5 51.2 35.8 52.0 C 35.1 52.9 34.1 53.3 33.0 53.3 C 31.4 53.3 30.2 52.4 29.5 50.5 C 29.3 49.9 29.2 49.1 29.2 48.2 L 29.2 46.7 L 23.4 46.7 L 23.4 47.8 C 23.4 51.5 24.4 54.3 26.4 56.2 C 28.1 58.0 30.4 58.8 33.2 58.8 C 35.7 58.8 37.9 57.8 39.7 55.9 C 41.6 54.0 42.5 51.7 42.5 49.2 C 42.5 46.5 41.9 43.9 40.7 41.5 C 40.0 40.1 38.5 37.8 36.2 34.4 C 35.5 33.5 34.6 32.1 33.3 30.1 L 32.3 28.6 C 31.6 27.5 31.0 26.7 30.7 26.1 C 30.5 25.8 30.4 25.6 30.4 25.5 Z M 206.7 77.6 L 14.9 77.6 C 7.7 77.6 1.8 71.7 1.8 64.5 L 1.8 14.8 C 1.8 7.6 7.7 1.7 14.9 1.7 L 206.7 1.7 C 213.9 1.7 219.8 7.6 219.8 14.8 L 219.8 64.5 C 219.8 71.7 213.9 77.6 206.7 77.6 " fill="#6C6D70"></path><path d="M 54.1 53.5 C 53.1 53.5 52.4 53.1 51.7 52.5 C 51.0 51.8 50.7 51.0 50.7 50.1 L 50.7 28.7 C 50.7 27.8 51.0 27.0 51.7 26.4 C 52.4 25.7 53.1 25.4 54.1 25.4 C 55.0 25.4 55.8 25.7 56.5 26.4 C 57.1 27.0 57.5 27.8 57.5 28.7 L 57.5 50.1 C 57.5 51.0 57.1 51.8 56.5 52.5 C 55.8 53.1 55.0 53.5 54.1 53.5 " fill="#6C6D70"></path><path d="M 91.2 34.1 L 91.2 46.3 L 86.3 34.1 Z M 91.2 34.1 " fill="#6C6D70"></path></g></g></g></g></g></svg>