<?xml version="1.0" encoding="UTF-8" standalone="no"?><svg xmlns="http://www.w3.org/2000/svg" xmlns:xlink="http://www.w3.org/1999/xlink" clip-rule="evenodd" stroke-miterlimit="10" viewBox="0 0 109 133"><desc>SVG generated by Keynote</desc><defs></defs><g transform="matrix(1.00, 0.00, -0.00, -1.00, 0.0, 133.0)"><g><clipPath id="clip0x6000012ade60"><path d="M 1.8 131.5 L 107.2 131.5 L 107.2 1.8 L 1.8 1.8 Z M 1.8 131.5 "></path></clipPath><g clip-path="url(#clip0x6000012ade60)"><g><clipPath id="clip0x6000012adfe0"><path d="M 1.8 1.8 L 107.2 1.8 L 107.2 131.5 L 1.8 131.5 Z M 1.8 1.8 "></path></clipPath><g clip-path="url(#clip0x6000012adfe0)"><path d="M 107.1 9.3 L 90.7 73.3 L 99.3 94.1 C 100.4 97.1 99.5 100.8 97.3 102.4 L 57.3 130.8 C 56.6 131.3 55.7 131.6 54.9 131.5 L 54.5 131.5 L 54.1 131.5 C 53.3 131.6 52.4 131.3 51.7 130.8 L 11.7 102.4 C 9.5 100.8 8.6 97.1 9.7 94.1 L 18.3 73.3 L 1.9 9.3 C 1.6 7.4 2.0 5.5 2.9 4.1 C 3.7 2.6 5.0 1.8 6.4 1.8 L 54.0 1.9 L 54.4 1.9 L 54.5 1.9 L 54.6 1.9 L 55.0 1.9 L 102.6 1.8 C 104.0 1.8 105.3 2.6 106.1 4.1 C 107.0 5.5 107.4 7.4 107.1 9.3 " fill="#005369"></path></g></g></g></g></g></svg>