<?xml version="1.0" encoding="UTF-8" standalone="no"?><svg xmlns="http://www.w3.org/2000/svg" xmlns:xlink="http://www.w3.org/1999/xlink" clip-rule="evenodd" stroke-miterlimit="10" viewBox="0 0 129 160"><desc>SVG generated by Keynote</desc><defs></defs><g transform="matrix(1.00, 0.00, -0.00, -1.00, 0.0, 160.0)"><g><clipPath id="clip0x6080012a94e0"><path d="M 1.8 158.8 L 128.0 158.8 L 128.0 1.8 L 1.8 1.8 Z M 1.8 158.8 "></path></clipPath><g clip-path="url(#clip0x6080012a94e0)"><g><clipPath id="clip0x6080012a9660"><path d="M 1.8 1.8 L 128.0 1.8 L 128.0 158.8 L 1.8 158.8 Z M 1.8 1.8 "></path></clipPath><g clip-path="url(#clip0x6080012a9660)"><path d="M 73.4 158.8 C 110.6 158.8 128.0 151.8 128.0 79.2 C 128.0 10.7 103.5 1.8 64.9 1.8 C 26.3 1.8 1.8 8.6 1.8 79.2 C 1.8 151.8 37.4 158.8 73.4 158.8 M 64.9 29.2 C 90.2 29.2 98.0 37.4 98.0 79.2 C 98.0 127.4 97.3 131.5 73.4 131.5 C 50.3 131.5 31.9 128.5 31.9 79.2 C 31.9 36.8 38.1 29.2 64.9 29.2 " fill="#D0272B"></path></g></g></g></g></g></svg>