<?xml version="1.0" encoding="UTF-8" standalone="no"?><svg xmlns="http://www.w3.org/2000/svg" xmlns:xlink="http://www.w3.org/1999/xlink" clip-rule="evenodd" stroke-miterlimit="10" viewBox="0 0 375 87"><desc>SVG generated by Keynote</desc><defs></defs><g transform="matrix(1.00, 0.00, -0.00, -1.00, 0.0, 87.0)"><text xml:space="preserve" font-family="Helvetica-Light,Helvetica" font-size="24.0" fill="#000000" transform="matrix(1.00, 0.00, -0.00, -1.00, 0.8, 63.6)">•</text><text xml:space="preserve" font-family="Helvetica-Light,Helvetica" font-size="32.0" fill="#000000" transform="matrix(1.00, 0.00, -0.00, -1.00, 35.8, 61.0)">D</text><text xml:space="preserve" font-family="Helvetica-Light,Helvetica" font-size="32.0" fill="#000000" transform="matrix(1.00, 0.00, -0.00, -1.00, 58.9, 61.0)">i</text><text xml:space="preserve" font-family="Helvetica-Light,Helvetica" font-size="32.0" fill="#000000" transform="matrix(1.00, 0.00, -0.00, -1.00, 66.0, 61.0)">r</text><text xml:space="preserve" font-family="Helvetica-Light,Helvetica" font-size="32.0" fill="#000000" transform="matrix(1.00, 0.00, -0.00, -1.00, 76.1, 61.0)">e</text><text xml:space="preserve" font-family="Helvetica-Light,Helvetica" font-size="32.0" fill="#000000" transform="matrix(1.00, 0.00, -0.00, -1.00, 93.9, 61.0)">c</text><text xml:space="preserve" font-family="Helvetica-Light,Helvetica" font-size="32.0" fill="#000000" transform="matrix(1.00, 0.00, -0.00, -1.00, 111.7, 61.0)">t</text><text xml:space="preserve" font-family="Helvetica-Light,Helvetica" font-size="32.0" fill="#000000" transform="matrix(1.00, 0.00, -0.00, -1.00, 120.6, 61.0)">o</text><text xml:space="preserve" font-family="Helvetica-Light,Helvetica" font-size="32.0" fill="#000000" transform="matrix(1.00, 0.00, -0.00, -1.00, 138.4, 61.0)">r</text><text xml:space="preserve" font-family="Helvetica-Light,Helvetica" font-size="32.0" fill="#000000" transform="matrix(1.00, 0.00, -0.00, -1.00, 149.0, 61.0)"> </text><text xml:space="preserve" font-family="Helvetica-Light,Helvetica" font-size="32.0" fill="#000000" transform="matrix(1.00, 0.00, -0.00, -1.00, 157.9, 61.0)">o</text><text xml:space="preserve" font-family="Helvetica-Light,Helvetica" font-size="32.0" fill="#000000" transform="matrix(1.00, 0.00, -0.00, -1.00, 175.7, 61.0)">f</text><text xml:space="preserve" font-family="Helvetica-Light,Helvetica" font-size="32.0" fill="#000000" transform="matrix(1.00, 0.00, -0.00, -1.00, 184.6, 61.0)"> </text><text xml:space="preserve" font-family="Helvetica-Bold,Helvetica" font-weight="bold" font-size="32.0" fill="#D0272B" transform="matrix(1.00, 0.00, -0.00, -1.00, 193.5, 61.0)">P</text><text xml:space="preserve" font-family="Helvetica-Bold,Helvetica" font-weight="bold" font-size="32.0" fill="#D0272B" transform="matrix(1.00, 0.00, -0.00, -1.00, 214.8, 61.0)">S</text><text xml:space="preserve" font-family="Helvetica-Bold,Helvetica" font-weight="bold" font-size="32.0" fill="#D0272B" transform="matrix(1.00, 0.00, -0.00, -1.00, 236.2, 61.0)">F</text><text xml:space="preserve" font-family="Helvetica-Light,Helvetica" font-size="32.0" fill="#000000" transform="matrix(1.00, 0.00, -0.00, -1.00, 255.7, 61.0)"> </text><text xml:space="preserve" font-family="Helvetica-Light,Helvetica" font-size="32.0" fill="#000000" transform="matrix(1.00, 0.00, -0.00, -1.00, 264.6, 61.0)">(</text><text xml:space="preserve" font-family="Helvetica-Light,Helvetica" font-size="32.0" fill="#000000" transform="matrix(1.00, 0.00, -0.00, -1.00, 275.3, 61.0)">P</text><text xml:space="preserve" font-family="Helvetica-Light,Helvetica" font-size="32.0" fill="#000000" transform="matrix(1.00, 0.00, -0.00, -1.00, 294.8, 61.0)">y</text><text xml:space="preserve" font-family="Helvetica-Light,Helvetica" font-size="32.0" fill="#000000" transform="matrix(1.00, 0.00, -0.00, -1.00, 310.8, 61.0)">t</text><text xml:space="preserve" font-family="Helvetica-Light,Helvetica" font-size="32.0" fill="#000000" transform="matrix(1.00, 0.00, -0.00, -1.00, 319.7, 61.0)">h</text><text xml:space="preserve" font-family="Helvetica-Light,Helvetica" font-size="32.0" fill="#000000" transform="matrix(1.00, 0.00, -0.00, -1.00, 337.5, 61.0)">o</text><text xml:space="preserve" font-family="Helvetica-Light,Helvetica" font-size="32.0" fill="#000000" transform="matrix(1.00, 0.00, -0.00, -1.00, 355.3, 61.0)">n</text><text xml:space="preserve" font-family="Helvetica-Light,Helvetica" font-size="32.0" fill="#000000" transform="matrix(1.00, 0.00, -0.00, -1.00, 373.1, 61.0)"> </text><text xml:space="preserve" font-family="Helvetica-Light,Helvetica" font-size="32.0" fill="#000000" transform="matrix(1.00, 0.00, -0.00, -1.00, 35.8, 7.8)">S</text><text xml:space="preserve" font-family="Helvetica-Light,Helvetica" font-size="32.0" fill="#000000" transform="matrix(1.00, 0.00, -0.00, -1.00, 55.4, 7.8)">o</text><text xml:space="preserve" font-family="Helvetica-Light,Helvetica" font-size="32.0" fill="#000000" transform="matrix(1.00, 0.00, -0.00, -1.00, 73.1, 7.8)">f</text><text xml:space="preserve" font-family="Helvetica-Light,Helvetica" font-size="32.0" fill="#000000" transform="matrix(1.00, 0.00, -0.00, -1.00, 82.0, 7.8)">t</text><text xml:space="preserve" font-family="Helvetica-Light,Helvetica" font-size="32.0" fill="#000000" transform="matrix(1.00, 0.00, -0.00, -1.00, 90.9, 7.8)">w</text><text xml:space="preserve" font-family="Helvetica-Light,Helvetica" font-size="32.0" fill="#000000" transform="matrix(1.00, 0.00, -0.00, -1.00, 114.0, 7.8)">a</text><text xml:space="preserve" font-family="Helvetica-Light,Helvetica" font-size="32.0" fill="#000000" transform="matrix(1.00, 0.00, -0.00, -1.00, 131.8, 7.8)">r</text><text xml:space="preserve" font-family="Helvetica-Light,Helvetica" font-size="32.0" fill="#000000" transform="matrix(1.00, 0.00, -0.00, -1.00, 141.9, 7.8)">e</text><text xml:space="preserve" font-family="Helvetica-Light,Helvetica" font-size="32.0" fill="#000000" transform="matrix(1.00, 0.00, -0.00, -1.00, 159.7, 7.8)"> </text><text xml:space="preserve" font-family="Helvetica-Light,Helvetica" font-size="32.0" fill="#000000" transform="matrix(1.00, 0.00, -0.00, -1.00, 168.6, 7.8)">F</text><text xml:space="preserve" font-family="Helvetica-Light,Helvetica" font-size="32.0" fill="#000000" transform="matrix(1.00, 0.00, -0.00, -1.00, 186.4, 7.8)">o</text><text xml:space="preserve" font-family="Helvetica-Light,Helvetica" font-size="32.0" fill="#000000" transform="matrix(1.00, 0.00, -0.00, -1.00, 204.2, 7.8)">u</text><text xml:space="preserve" font-family="Helvetica-Light,Helvetica" font-size="32.0" fill="#000000" transform="matrix(1.00, 0.00, -0.00, -1.00, 222.0, 7.8)">n</text><text xml:space="preserve" font-family="Helvetica-Light,Helvetica" font-size="32.0" fill="#000000" transform="matrix(1.00, 0.00, -0.00, -1.00, 239.8, 7.8)">d</text><text xml:space="preserve" font-family="Helvetica-Light,Helvetica" font-size="32.0" fill="#000000" transform="matrix(1.00, 0.00, -0.00, -1.00, 259.3, 7.8)">a</text><text xml:space="preserve" font-family="Helvetica-Light,Helvetica" font-size="32.0" fill="#000000" transform="matrix(1.00, 0.00, -0.00, -1.00, 277.1, 7.8)">t</text><text xml:space="preserve" font-family="Helvetica-Light,Helvetica" font-size="32.0" fill="#000000" transform="matrix(1.00, 0.00, -0.00, -1.00, 286.0, 7.8)">i</text><text xml:space="preserve" font-family="Helvetica-Light,Helvetica" font-size="32.0" fill="#000000" transform="matrix(1.00, 0.00, -0.00, -1.00, 293.1, 7.8)">o</text><text xml:space="preserve" font-family="Helvetica-Light,Helvetica" font-size="32.0" fill="#000000" transform="matrix(1.00, 0.00, -0.00, -1.00, 310.9, 7.8)">n</text><text xml:space="preserve" font-family="Helvetica-Light,Helvetica" font-size="32.0" fill="#000000" transform="matrix(1.00, 0.00, -0.00, -1.00, 328.7, 7.8)">)</text></g></svg>